# MagicaVoxel @ Ephtracy

# material
mtllib flowers1.mtl
usemtl palette

# normals
vn -1 0 0
vn 1 0 0
vn 0 0 1
vn 0 0 -1
vn 0 -1 0
vn 0 1 0

# texcoords
vt 0.00195313 0.5
vt 0.0253906 0.5
vt 0.0410156 0.5
vt 0.0839844 0.5
vt 0.181641 0.5
vt 0.279297 0.5
vt 0.599609 0.5
vt 0.626953 0.5
vt 0.654297 0.5
vt 0.728516 0.5
vt 0.794922 0.5
vt 0.818359 0.5
vt 0.908203 0.5

# verts
v -9 0 2
v -9 0 1
v -9 0 -0
v -9 0 -4
v -9 1 2
v -9 1 1
v -9 1 -0
v -9 1 -4
v -9 3 1
v -9 3 -0
v -9 4 1
v -9 4 -0
v -8 1 1
v -8 1 -0
v -8 3 2
v -8 3 1
v -8 3 -0
v -8 3 -1
v -8 4 2
v -8 4 1
v -8 4 -0
v -8 4 -1
v -7 2 -2
v -7 2 -3
v -7 3 -2
v -7 3 -3
v -7 4 -2
v -7 4 -3
v -7 5 -2
v -7 5 -3
v -6 1 1
v -6 1 -0
v -6 1 -2
v -6 1 -3
v -6 2 1
v -6 2 -0
v -6 2 -2
v -6 2 -3
v -6 2 -4
v -6 3 -2
v -6 3 -3
v -6 3 -4
v -6 4 -1
v -6 4 -2
v -6 4 -3
v -6 4 -4
v -6 5 -1
v -6 5 -2
v -6 5 -3
v -6 5 -4
v -6 6 -2
v -6 6 -3
v -5 1 2
v -5 1 1
v -5 1 -0
v -5 1 -1
v -5 2 2
v -5 2 1
v -5 2 -0
v -5 2 -1
v -3 4 -1
v -3 4 -2
v -3 5 -1
v -3 5 -2
v -2 1 -1
v -2 1 -2
v -2 2 -0
v -2 2 -1
v -2 3 -0
v -2 3 -1
v -2 4 -0
v -2 4 -1
v -2 4 -2
v -2 4 -3
v -2 5 -0
v -2 5 -1
v -2 5 -2
v -2 5 -3
v -1 3 1
v -1 3 -0
v -1 4 1
v -1 4 -0
v 0 1 1
v 0 1 -0
v 0 3 2
v 0 3 1
v 0 3 -0
v 0 3 -1
v 0 4 2
v 0 4 1
v 0 4 -0
v 0 4 -1
v 0 4 -2
v 0 4 -3
v 0 5 1
v 0 5 -0
v 0 5 -2
v 0 6 -2
v 0 6 -3
v 1 1 -2
v 1 1 -3
v 1 4 -1
v 1 4 -2
v 1 4 -3
v 1 4 -4
v 1 6 -1
v 1 6 -2
v 1 6 -3
v 1 6 -4
v -7 1 1
v -7 1 -0
v -7 3 2
v -7 3 1
v -7 3 -0
v -7 3 -1
v -7 4 2
v -7 4 1
v -7 4 -0
v -7 4 -1
v -6 3 1
v -6 3 -0
v -6 4 1
v -6 4 -0
v -5 1 -2
v -5 1 -3
v -5 2 -2
v -5 2 -3
v -5 2 -4
v -5 3 -2
v -5 3 -3
v -5 3 -4
v -5 4 -1
v -5 4 -2
v -5 4 -3
v -5 4 -4
v -5 5 -1
v -5 5 -2
v -5 5 -3
v -5 5 -4
v -5 6 -2
v -5 6 -3
v -4 1 2
v -4 1 1
v -4 1 -0
v -4 1 -1
v -4 2 2
v -4 2 1
v -4 2 -0
v -4 2 -1
v -4 2 -2
v -4 2 -3
v -4 3 -2
v -4 3 -3
v -4 4 -2
v -4 4 -3
v -4 5 -2
v -4 5 -3
v -3 1 1
v -3 1 -0
v -3 2 1
v -3 2 -0
v -1 1 -1
v -1 1 -2
v -1 2 -0
v -1 2 -1
v -1 3 -0
v -1 3 -1
v -1 4 -0
v -1 4 -1
v -1 4 -2
v -1 4 -3
v -1 5 -0
v -1 5 -1
v -1 5 -2
v -1 5 -3
v 0 4 -1
v 0 4 -2
v 0 5 -1
v 0 5 -2
v 1 1 1
v 1 1 -0
v 1 3 2
v 1 3 1
v 1 3 -0
v 1 3 -1
v 1 4 2
v 1 4 1
v 1 4 -0
v 1 4 -1
v 1 5 1
v 1 5 -0
v 2 1 -2
v 2 1 -3
v 2 3 1
v 2 3 -0
v 2 4 1
v 2 4 -0
v 2 4 -1
v 2 4 -2
v 2 4 -3
v 2 4 -4
v 2 6 -1
v 2 6 -2
v 2 6 -3
v 2 6 -4
v 3 0 2
v 3 0 1
v 3 0 -1
v 3 0 -2
v 3 0 -4
v 3 1 2
v 3 1 1
v 3 1 -1
v 3 1 -2
v 3 1 -4
v 3 4 -2
v 3 4 -3
v 3 6 -2
v 3 6 -3
v -9 0 2
v -9 1 2
v -8 3 2
v -8 4 2
v -7 0 2
v -7 1 2
v -7 3 2
v -7 4 2
v -6 0 2
v -6 1 2
v -5 1 2
v -5 2 2
v -4 0 2
v -4 1 2
v -4 2 2
v -3 0 2
v -3 1 2
v -1 0 2
v -1 1 2
v 0 0 2
v 0 1 2
v 0 3 2
v 0 4 2
v 1 3 2
v 1 4 2
v 2 0 2
v 2 1 2
v 3 0 2
v 3 1 2
v -9 3 1
v -9 4 1
v -8 1 1
v -8 3 1
v -8 4 1
v -7 1 1
v -7 3 1
v -7 4 1
v -6 1 1
v -6 2 1
v -6 3 1
v -6 4 1
v -5 1 1
v -5 2 1
v -4 1 1
v -4 2 1
v -3 1 1
v -3 2 1
v -1 3 1
v -1 4 1
v 0 1 1
v 0 3 1
v 0 4 1
v 0 5 1
v 1 1 1
v 1 3 1
v 1 4 1
v 1 5 1
v 2 3 1
v 2 4 1
v -2 2 -0
v -2 3 -0
v -2 4 -0
v -2 5 -0
v -1 2 -0
v -1 3 -0
v -1 4 -0
v -1 5 -0
v -6 4 -1
v -6 5 -1
v -5 4 -1
v -5 5 -1
v -3 4 -1
v -3 5 -1
v -2 1 -1
v -2 2 -1
v -2 3 -1
v -2 4 -1
v -2 5 -1
v -1 1 -1
v -1 2 -1
v -1 3 -1
v -1 4 -1
v -1 5 -1
v 0 4 -1
v 0 5 -1
v 1 4 -1
v 1 6 -1
v 2 4 -1
v 2 6 -1
v -7 2 -2
v -7 3 -2
v -7 4 -2
v -7 5 -2
v -6 1 -2
v -6 2 -2
v -6 3 -2
v -6 4 -2
v -6 5 -2
v -6 6 -2
v -5 1 -2
v -5 2 -2
v -5 3 -2
v -5 4 -2
v -5 5 -2
v -5 6 -2
v -4 2 -2
v -4 3 -2
v -4 4 -2
v -4 5 -2
v 0 4 -2
v 0 5 -2
v 0 6 -2
v 1 1 -2
v 1 4 -2
v 1 6 -2
v 2 1 -2
v 2 4 -2
v 2 6 -2
v 3 4 -2
v 3 6 -2
v -9 3 -0
v -9 4 -0
v -8 1 -0
v -8 3 -0
v -8 4 -0
v -7 1 -0
v -7 3 -0
v -7 4 -0
v -6 1 -0
v -6 2 -0
v -6 3 -0
v -6 4 -0
v -5 1 -0
v -5 2 -0
v -4 1 -0
v -4 2 -0
v -3 1 -0
v -3 2 -0
v -1 3 -0
v -1 4 -0
v 0 1 -0
v 0 3 -0
v 0 4 -0
v 0 5 -0
v 1 1 -0
v 1 3 -0
v 1 4 -0
v 1 5 -0
v 2 3 -0
v 2 4 -0
v -8 3 -1
v -8 4 -1
v -7 3 -1
v -7 4 -1
v -5 1 -1
v -5 2 -1
v -4 1 -1
v -4 2 -1
v 0 3 -1
v 0 4 -1
v 1 3 -1
v 1 4 -1
v -3 4 -2
v -3 5 -2
v -2 1 -2
v -2 4 -2
v -2 5 -2
v -1 1 -2
v -1 4 -2
v -1 5 -2
v 0 4 -2
v 0 5 -2
v -7 2 -3
v -7 3 -3
v -7 4 -3
v -7 5 -3
v -6 1 -3
v -6 2 -3
v -6 3 -3
v -6 4 -3
v -6 5 -3
v -6 6 -3
v -5 1 -3
v -5 2 -3
v -5 3 -3
v -5 4 -3
v -5 5 -3
v -5 6 -3
v -4 2 -3
v -4 3 -3
v -4 4 -3
v -4 5 -3
v -2 4 -3
v -2 5 -3
v -1 4 -3
v -1 5 -3
v 0 4 -3
v 0 6 -3
v 1 1 -3
v 1 4 -3
v 1 6 -3
v 2 1 -3
v 2 4 -3
v 2 6 -3
v 3 4 -3
v 3 6 -3
v -9 0 -4
v -9 1 -4
v -6 2 -4
v -6 3 -4
v -6 4 -4
v -6 5 -4
v -5 0 -4
v -5 1 -4
v -5 2 -4
v -5 3 -4
v -5 4 -4
v -5 5 -4
v -4 0 -4
v -4 1 -4
v -3 0 -4
v -3 1 -4
v -2 0 -4
v -2 1 -4
v 1 0 -4
v 1 1 -4
v 1 4 -4
v 1 6 -4
v 2 0 -4
v 2 1 -4
v 2 4 -4
v 2 6 -4
v 3 0 -4
v 3 1 -4
v -9 0 2
v -7 0 2
v -6 0 2
v -4 0 2
v -3 0 2
v -1 0 2
v 0 0 2
v 2 0 2
v 3 0 2
v -9 0 1
v -8 0 1
v -7 0 1
v -6 0 1
v -4 0 1
v -3 0 1
v -2 0 1
v -1 0 1
v 0 0 1
v 2 0 1
v 3 0 1
v -9 0 -0
v -8 0 -0
v -6 0 -0
v -5 0 -0
v -3 0 -0
v -2 0 -0
v 0 0 -0
v 1 0 -0
v -6 0 -1
v -5 0 -1
v -4 0 -1
v -2 0 -1
v 0 0 -1
v 1 0 -1
v 2 0 -1
v 3 0 -1
v -8 0 -2
v -7 0 -2
v -4 0 -2
v -2 0 -2
v -1 0 -2
v 2 0 -2
v 3 0 -2
v -8 0 -3
v -7 0 -3
v -5 0 -3
v -4 0 -3
v -3 0 -3
v -2 0 -3
v -1 0 -3
v 1 0 -3
v 2 0 -3
v -9 0 -4
v -5 0 -4
v -4 0 -4
v -3 0 -4
v -2 0 -4
v 1 0 -4
v 2 0 -4
v 3 0 -4
v -2 2 -0
v -1 2 -0
v -2 2 -1
v -1 2 -1
v -7 2 -2
v -6 2 -2
v -5 2 -2
v -4 2 -2
v -7 2 -3
v -6 2 -3
v -5 2 -3
v -4 2 -3
v -6 2 -4
v -5 2 -4
v -8 3 2
v -7 3 2
v 0 3 2
v 1 3 2
v -9 3 1
v -8 3 1
v -7 3 1
v -6 3 1
v -1 3 1
v 0 3 1
v 1 3 1
v 2 3 1
v -9 3 -0
v -8 3 -0
v -7 3 -0
v -6 3 -0
v -1 3 -0
v 0 3 -0
v 1 3 -0
v 2 3 -0
v -8 3 -1
v -7 3 -1
v 0 3 -1
v 1 3 -1
v -2 4 -0
v -1 4 -0
v -6 4 -1
v -5 4 -1
v -3 4 -1
v -2 4 -1
v -1 4 -1
v 0 4 -1
v 1 4 -1
v 2 4 -1
v -7 4 -2
v -6 4 -2
v -5 4 -2
v -4 4 -2
v -3 4 -2
v -2 4 -2
v -1 4 -2
v 0 4 -2
v 1 4 -2
v 2 4 -2
v 3 4 -2
v -7 4 -3
v -6 4 -3
v -5 4 -3
v -4 4 -3
v -2 4 -3
v -1 4 -3
v 0 4 -3
v 1 4 -3
v 2 4 -3
v 3 4 -3
v -6 4 -4
v -5 4 -4
v 1 4 -4
v 2 4 -4
v -9 1 2
v -7 1 2
v -6 1 2
v -5 1 2
v -4 1 2
v -3 1 2
v -1 1 2
v 0 1 2
v 2 1 2
v 3 1 2
v -9 1 1
v -8 1 1
v -7 1 1
v -6 1 1
v -5 1 1
v -4 1 1
v -3 1 1
v -2 1 1
v -1 1 1
v 0 1 1
v 1 1 1
v 2 1 1
v 3 1 1
v -9 1 -0
v -8 1 -0
v -7 1 -0
v -6 1 -0
v -5 1 -0
v -4 1 -0
v -3 1 -0
v -2 1 -0
v 0 1 -0
v 1 1 -0
v -6 1 -1
v -5 1 -1
v -4 1 -1
v -2 1 -1
v -1 1 -1
v 0 1 -1
v 1 1 -1
v 2 1 -1
v 3 1 -1
v -8 1 -2
v -7 1 -2
v -6 1 -2
v -5 1 -2
v -4 1 -2
v -2 1 -2
v -1 1 -2
v 1 1 -2
v 2 1 -2
v 3 1 -2
v -8 1 -3
v -7 1 -3
v -6 1 -3
v -5 1 -3
v -4 1 -3
v -3 1 -3
v -2 1 -3
v -1 1 -3
v 1 1 -3
v 2 1 -3
v -9 1 -4
v -5 1 -4
v -4 1 -4
v -3 1 -4
v -2 1 -4
v 1 1 -4
v 2 1 -4
v 3 1 -4
v -5 2 2
v -4 2 2
v -6 2 1
v -5 2 1
v -4 2 1
v -3 2 1
v -6 2 -0
v -5 2 -0
v -4 2 -0
v -3 2 -0
v -5 2 -1
v -4 2 -1
v -2 3 -0
v -1 3 -0
v -2 3 -1
v -1 3 -1
v -7 3 -2
v -6 3 -2
v -5 3 -2
v -4 3 -2
v -7 3 -3
v -6 3 -3
v -5 3 -3
v -4 3 -3
v -6 3 -4
v -5 3 -4
v -8 4 2
v -7 4 2
v 0 4 2
v 1 4 2
v -9 4 1
v -8 4 1
v -7 4 1
v -6 4 1
v -1 4 1
v 0 4 1
v 1 4 1
v 2 4 1
v -9 4 -0
v -8 4 -0
v -7 4 -0
v -6 4 -0
v -1 4 -0
v 0 4 -0
v 1 4 -0
v 2 4 -0
v -8 4 -1
v -7 4 -1
v 0 4 -1
v 1 4 -1
v 0 5 1
v 1 5 1
v -2 5 -0
v -1 5 -0
v 0 5 -0
v 1 5 -0
v -6 5 -1
v -5 5 -1
v -3 5 -1
v -2 5 -1
v -1 5 -1
v 0 5 -1
v -7 5 -2
v -6 5 -2
v -5 5 -2
v -4 5 -2
v -3 5 -2
v -2 5 -2
v -1 5 -2
v 0 5 -2
v -7 5 -3
v -6 5 -3
v -5 5 -3
v -4 5 -3
v -2 5 -3
v -1 5 -3
v -6 5 -4
v -5 5 -4
v 1 6 -1
v 2 6 -1
v -6 6 -2
v -5 6 -2
v 0 6 -2
v 1 6 -2
v 2 6 -2
v 3 6 -2
v -6 6 -3
v -5 6 -3
v 0 6 -3
v 1 6 -3
v 2 6 -3
v 3 6 -3
v 1 6 -4
v 2 6 -4

# faces
f 5/8/1 2/8/1 1/8/1
f 6/9/1 3/9/1 2/9/1
f 6/8/1 2/8/1 5/8/1
f 7/8/1 4/8/1 3/8/1
f 7/9/1 3/9/1 6/9/1
f 8/8/1 4/8/1 7/8/1
f 11/1/1 10/1/1 9/1/1
f 12/1/1 10/1/1 11/1/1
f 16/7/1 14/7/1 13/7/1
f 17/7/1 14/7/1 16/7/1
f 19/1/1 16/1/1 15/1/1
f 20/1/1 16/1/1 19/1/1
f 21/1/1 18/1/1 17/1/1
f 22/1/1 18/1/1 21/1/1
f 25/13/1 24/13/1 23/13/1
f 26/13/1 24/13/1 25/13/1
f 29/10/1 28/10/1 27/10/1
f 30/10/1 28/10/1 29/10/1
f 35/2/1 32/2/1 31/2/1
f 36/2/1 32/2/1 35/2/1
f 37/13/1 34/13/1 33/13/1
f 38/13/1 34/13/1 37/13/1
f 41/13/1 39/13/1 38/13/1
f 42/13/1 39/13/1 41/13/1
f 44/13/1 41/13/1 40/13/1
f 45/13/1 41/13/1 44/13/1
f 47/10/1 44/10/1 43/10/1
f 48/10/1 44/10/1 47/10/1
f 49/10/1 46/10/1 45/10/1
f 50/10/1 46/10/1 49/10/1
f 51/10/1 49/10/1 48/10/1
f 52/10/1 49/10/1 51/10/1
f 57/2/1 54/2/1 53/2/1
f 58/2/1 54/2/1 57/2/1
f 59/2/1 56/2/1 55/2/1
f 60/2/1 56/2/1 59/2/1
f 63/4/1 62/4/1 61/4/1
f 64/4/1 62/4/1 63/4/1
f 68/9/1 66/9/1 65/9/1
f 69/9/1 68/9/1 67/9/1
f 70/9/1 66/9/1 68/9/1
f 70/9/1 68/9/1 69/9/1
f 72/9/1 66/9/1 70/9/1
f 73/9/1 66/9/1 72/9/1
f 75/4/1 72/4/1 71/4/1
f 76/4/1 72/4/1 75/4/1
f 77/4/1 74/4/1 73/4/1
f 78/4/1 74/4/1 77/4/1
f 81/1/1 80/1/1 79/1/1
f 82/1/1 80/1/1 81/1/1
f 86/12/1 84/12/1 83/12/1
f 87/12/1 84/12/1 86/12/1
f 89/1/1 86/1/1 85/1/1
f 90/1/1 86/1/1 89/1/1
f 91/1/1 88/1/1 87/1/1
f 92/1/1 88/1/1 91/1/1
f 95/3/1 91/3/1 90/3/1
f 96/3/1 91/3/1 95/3/1
f 97/6/1 94/6/1 93/6/1
f 98/6/1 94/6/1 97/6/1
f 99/6/1 94/6/1 98/6/1
f 103/11/1 101/11/1 100/11/1
f 104/11/1 101/11/1 103/11/1
f 106/6/1 103/6/1 102/6/1
f 107/6/1 103/6/1 106/6/1
f 108/6/1 105/6/1 104/6/1
f 109/6/1 105/6/1 108/6/1
f 110/7/2 111/7/2 113/7/2
f 113/7/2 111/7/2 114/7/2
f 112/1/2 113/1/2 116/1/2
f 116/1/2 113/1/2 117/1/2
f 114/1/2 115/1/2 118/1/2
f 118/1/2 115/1/2 119/1/2
f 120/1/2 121/1/2 122/1/2
f 122/1/2 121/1/2 123/1/2
f 124/13/2 125/13/2 126/13/2
f 126/13/2 125/13/2 127/13/2
f 127/13/2 128/13/2 130/13/2
f 130/13/2 128/13/2 131/13/2
f 129/13/2 130/13/2 133/13/2
f 133/13/2 130/13/2 134/13/2
f 132/10/2 133/10/2 136/10/2
f 136/10/2 133/10/2 137/10/2
f 134/10/2 135/10/2 138/10/2
f 138/10/2 135/10/2 139/10/2
f 137/10/2 138/10/2 140/10/2
f 140/10/2 138/10/2 141/10/2
f 142/2/2 143/2/2 146/2/2
f 146/2/2 143/2/2 147/2/2
f 144/2/2 145/2/2 148/2/2
f 148/2/2 145/2/2 149/2/2
f 150/13/2 151/13/2 152/13/2
f 152/13/2 151/13/2 153/13/2
f 154/10/2 155/10/2 156/10/2
f 156/10/2 155/10/2 157/10/2
f 158/2/2 159/2/2 160/2/2
f 160/2/2 159/2/2 161/2/2
f 162/9/2 163/9/2 165/9/2
f 164/9/2 165/9/2 166/9/2
f 165/9/2 163/9/2 167/9/2
f 166/9/2 165/9/2 167/9/2
f 167/9/2 163/9/2 169/9/2
f 169/9/2 163/9/2 170/9/2
f 168/4/2 169/4/2 172/4/2
f 172/4/2 169/4/2 173/4/2
f 170/4/2 171/4/2 174/4/2
f 174/4/2 171/4/2 175/4/2
f 176/4/2 177/4/2 178/4/2
f 178/4/2 177/4/2 179/4/2
f 180/12/2 181/12/2 183/12/2
f 183/12/2 181/12/2 184/12/2
f 182/1/2 183/1/2 186/1/2
f 186/1/2 183/1/2 187/1/2
f 184/1/2 185/1/2 188/1/2
f 188/1/2 185/1/2 189/1/2
f 187/3/2 188/3/2 190/3/2
f 190/3/2 188/3/2 191/3/2
f 194/1/2 195/1/2 196/1/2
f 196/1/2 195/1/2 197/1/2
f 192/11/2 193/11/2 199/11/2
f 199/11/2 193/11/2 200/11/2
f 198/6/2 199/6/2 202/6/2
f 202/6/2 199/6/2 203/6/2
f 200/6/2 201/6/2 204/6/2
f 204/6/2 201/6/2 205/6/2
f 206/9/2 207/9/2 211/9/2
f 207/8/2 208/8/2 212/8/2
f 211/9/2 207/9/2 212/9/2
f 208/9/2 209/9/2 213/9/2
f 212/8/2 208/8/2 213/8/2
f 209/8/2 210/8/2 214/8/2
f 213/9/2 209/9/2 214/9/2
f 214/8/2 210/8/2 215/8/2
f 216/6/2 217/6/2 218/6/2
f 218/6/2 217/6/2 219/6/2
f 224/8/3 221/8/3 220/8/3
f 225/8/3 221/8/3 224/8/3
f 226/1/3 223/1/3 222/1/3
f 227/1/3 223/1/3 226/1/3
f 228/9/3 225/9/3 224/9/3
f 229/9/3 225/9/3 228/9/3
f 230/8/3 229/8/3 228/8/3
f 232/8/3 230/8/3 228/8/3
f 233/2/3 231/2/3 230/2/3
f 233/8/3 230/8/3 232/8/3
f 234/2/3 231/2/3 233/2/3
f 235/9/3 233/9/3 232/9/3
f 236/9/3 233/9/3 235/9/3
f 237/8/3 236/8/3 235/8/3
f 238/8/3 236/8/3 237/8/3
f 239/9/3 238/9/3 237/9/3
f 240/9/3 238/9/3 239/9/3
f 243/1/3 242/1/3 241/1/3
f 244/1/3 242/1/3 243/1/3
f 245/8/3 240/8/3 239/8/3
f 246/8/3 240/8/3 245/8/3
f 247/9/3 246/9/3 245/9/3
f 248/9/3 246/9/3 247/9/3
f 252/1/3 250/1/3 249/1/3
f 253/1/3 250/1/3 252/1/3
f 254/7/3 252/7/3 251/7/3
f 255/7/3 252/7/3 254/7/3
f 259/1/3 256/1/3 255/1/3
f 260/1/3 256/1/3 259/1/3
f 261/2/3 258/2/3 257/2/3
f 262/2/3 258/2/3 261/2/3
f 265/2/3 264/2/3 263/2/3
f 266/2/3 264/2/3 265/2/3
f 270/1/3 268/1/3 267/1/3
f 271/1/3 268/1/3 270/1/3
f 273/12/3 270/12/3 269/12/3
f 274/12/3 270/12/3 273/12/3
f 275/3/3 272/3/3 271/3/3
f 276/3/3 272/3/3 275/3/3
f 277/1/3 275/1/3 274/1/3
f 278/1/3 275/1/3 277/1/3
f 283/9/3 280/9/3 279/9/3
f 284/9/3 280/9/3 283/9/3
f 285/4/3 282/4/3 281/4/3
f 286/4/3 282/4/3 285/4/3
f 289/10/3 288/10/3 287/10/3
f 290/10/3 288/10/3 289/10/3
f 296/4/3 292/4/3 291/4/3
f 297/4/3 292/4/3 296/4/3
f 298/9/3 294/9/3 293/9/3
f 299/9/3 294/9/3 298/9/3
f 300/9/3 296/9/3 295/9/3
f 301/9/3 296/9/3 300/9/3
f 303/4/3 302/4/3 301/4/3
f 304/4/3 302/4/3 303/4/3
f 307/6/3 306/6/3 305/6/3
f 308/6/3 306/6/3 307/6/3
f 314/13/3 310/13/3 309/13/3
f 315/13/3 310/13/3 314/13/3
f 316/10/3 312/10/3 311/10/3
f 317/10/3 312/10/3 316/10/3
f 319/13/3 314/13/3 313/13/3
f 320/9/3 315/9/3 314/9/3
f 320/13/3 314/13/3 319/13/3
f 321/13/3 316/13/3 315/13/3
f 321/9/3 315/9/3 320/9/3
f 322/13/3 316/13/3 321/13/3
f 323/10/3 318/10/3 317/10/3
f 324/10/3 318/10/3 323/10/3
f 325/13/3 321/13/3 320/13/3
f 326/13/3 321/13/3 325/13/3
f 327/10/3 323/10/3 322/10/3
f 328/10/3 323/10/3 327/10/3
f 333/6/3 330/6/3 329/6/3
f 333/6/3 331/6/3 330/6/3
f 334/6/3 331/6/3 333/6/3
f 335/11/3 333/11/3 332/11/3
f 336/11/3 333/11/3 335/11/3
f 338/6/3 337/6/3 336/6/3
f 339/6/3 337/6/3 338/6/3
f 340/1/4 341/1/4 343/1/4
f 343/1/4 341/1/4 344/1/4
f 342/7/4 343/7/4 345/7/4
f 345/7/4 343/7/4 346/7/4
f 346/1/4 347/1/4 350/1/4
f 350/1/4 347/1/4 351/1/4
f 348/2/4 349/2/4 352/2/4
f 352/2/4 349/2/4 353/2/4
f 354/2/4 355/2/4 356/2/4
f 356/2/4 355/2/4 357/2/4
f 358/1/4 359/1/4 361/1/4
f 361/1/4 359/1/4 362/1/4
f 360/12/4 361/12/4 364/12/4
f 364/12/4 361/12/4 365/12/4
f 362/3/4 363/3/4 366/3/4
f 366/3/4 363/3/4 367/3/4
f 365/1/4 366/1/4 368/1/4
f 368/1/4 366/1/4 369/1/4
f 370/1/4 371/1/4 372/1/4
f 372/1/4 371/1/4 373/1/4
f 374/2/4 375/2/4 376/2/4
f 376/2/4 375/2/4 377/2/4
f 378/1/4 379/1/4 380/1/4
f 380/1/4 379/1/4 381/1/4
f 382/4/4 383/4/4 385/4/4
f 385/4/4 383/4/4 386/4/4
f 384/9/4 385/9/4 387/9/4
f 387/9/4 385/9/4 388/9/4
f 388/4/4 389/4/4 390/4/4
f 390/4/4 389/4/4 391/4/4
f 392/13/4 393/13/4 397/13/4
f 397/13/4 393/13/4 398/13/4
f 394/10/4 395/10/4 399/10/4
f 399/10/4 395/10/4 400/10/4
f 396/13/4 397/13/4 402/13/4
f 402/13/4 397/13/4 403/13/4
f 398/13/4 399/13/4 404/13/4
f 404/13/4 399/13/4 405/13/4
f 400/10/4 401/10/4 406/10/4
f 406/10/4 401/10/4 407/10/4
f 403/13/4 404/13/4 408/13/4
f 408/13/4 404/13/4 409/13/4
f 405/10/4 406/10/4 410/10/4
f 410/10/4 406/10/4 411/10/4
f 412/4/4 413/4/4 414/4/4
f 414/4/4 413/4/4 415/4/4
f 416/6/4 417/6/4 419/6/4
f 419/6/4 417/6/4 420/6/4
f 418/11/4 419/11/4 421/11/4
f 421/11/4 419/11/4 422/11/4
f 422/6/4 423/6/4 424/6/4
f 424/6/4 423/6/4 425/6/4
f 426/8/4 427/8/4 432/8/4
f 432/8/4 427/8/4 433/8/4
f 428/13/4 429/13/4 434/13/4
f 434/13/4 429/13/4 435/13/4
f 430/10/4 431/10/4 436/10/4
f 436/10/4 431/10/4 437/10/4
f 432/9/4 433/9/4 438/9/4
f 438/9/4 433/9/4 439/9/4
f 438/8/4 439/8/4 440/8/4
f 440/8/4 439/8/4 441/8/4
f 440/9/4 441/9/4 442/9/4
f 442/9/4 441/9/4 443/9/4
f 442/8/4 443/8/4 444/8/4
f 444/8/4 443/8/4 445/8/4
f 444/9/4 445/9/4 448/9/4
f 448/9/4 445/9/4 449/9/4
f 446/6/4 447/6/4 450/6/4
f 450/6/4 447/6/4 451/6/4
f 448/8/4 449/8/4 452/8/4
f 452/8/4 449/8/4 453/8/4
f 463/8/5 455/8/5 454/8/5
f 464/8/5 455/8/5 463/8/5
f 465/9/5 456/9/5 455/9/5
f 465/8/5 455/8/5 464/8/5
f 466/8/5 457/8/5 456/8/5
f 466/9/5 456/9/5 465/9/5
f 467/9/5 458/9/5 457/9/5
f 467/8/5 457/8/5 466/8/5
f 468/8/5 459/8/5 458/8/5
f 468/9/5 458/9/5 467/9/5
f 469/8/5 459/8/5 468/8/5
f 470/9/5 460/9/5 459/9/5
f 470/8/5 459/8/5 469/8/5
f 471/8/5 461/8/5 460/8/5
f 471/9/5 460/9/5 470/9/5
f 472/9/5 462/9/5 461/9/5
f 472/8/5 461/8/5 471/8/5
f 473/9/5 462/9/5 472/9/5
f 474/9/5 464/9/5 463/9/5
f 475/8/5 465/8/5 464/8/5
f 475/9/5 464/9/5 474/9/5
f 475/8/5 466/8/5 465/8/5
f 475/8/5 467/8/5 466/8/5
f 475/8/5 468/8/5 467/8/5
f 476/8/5 468/8/5 475/8/5
f 477/8/5 468/8/5 476/8/5
f 478/9/5 469/9/5 468/9/5
f 478/8/5 468/8/5 477/8/5
f 479/8/5 471/8/5 470/8/5
f 479/9/5 469/9/5 478/9/5
f 479/8/5 473/8/5 472/8/5
f 479/8/5 472/8/5 471/8/5
f 479/8/5 470/8/5 469/8/5
f 480/8/5 473/8/5 479/8/5
f 481/8/5 473/8/5 480/8/5
f 482/8/5 476/8/5 475/8/5
f 482/8/5 475/8/5 474/8/5
f 482/9/5 477/9/5 476/9/5
f 483/8/5 478/8/5 477/8/5
f 483/9/5 477/9/5 482/9/5
f 483/8/5 480/8/5 479/8/5
f 483/8/5 479/8/5 478/8/5
f 484/8/5 480/8/5 483/8/5
f 485/8/5 480/8/5 484/8/5
f 486/9/5 481/9/5 480/9/5
f 486/8/5 480/8/5 485/8/5
f 487/8/5 473/8/5 481/8/5
f 487/9/5 481/9/5 486/9/5
f 488/8/5 473/8/5 487/8/5
f 489/8/5 473/8/5 488/8/5
f 490/8/5 482/8/5 474/8/5
f 490/8/5 483/8/5 482/8/5
f 490/8/5 484/8/5 483/8/5
f 491/8/5 484/8/5 490/8/5
f 492/9/5 485/9/5 484/9/5
f 492/8/5 484/8/5 491/8/5
f 493/8/5 486/8/5 485/8/5
f 493/9/5 485/9/5 492/9/5
f 493/8/5 488/8/5 487/8/5
f 493/8/5 487/8/5 486/8/5
f 494/8/5 488/8/5 493/8/5
f 495/9/5 489/9/5 488/9/5
f 495/8/5 488/8/5 494/8/5
f 496/9/5 489/9/5 495/9/5
f 497/9/5 491/9/5 490/9/5
f 497/8/5 490/8/5 474/8/5
f 498/8/5 492/8/5 491/8/5
f 498/9/5 491/9/5 497/9/5
f 498/8/5 493/8/5 492/8/5
f 499/8/5 493/8/5 498/8/5
f 500/8/5 493/8/5 499/8/5
f 501/8/5 493/8/5 500/8/5
f 502/9/5 494/9/5 493/9/5
f 502/8/5 493/8/5 501/8/5
f 503/8/5 496/8/5 495/8/5
f 503/9/5 494/9/5 502/9/5
f 503/8/5 495/8/5 494/8/5
f 504/8/5 496/8/5 503/8/5
f 505/8/5 496/8/5 504/8/5
f 506/8/5 497/8/5 474/8/5
f 506/8/5 498/8/5 497/8/5
f 506/8/5 499/8/5 498/8/5
f 507/9/5 500/9/5 499/9/5
f 507/8/5 499/8/5 506/8/5
f 508/8/5 501/8/5 500/8/5
f 508/9/5 500/9/5 507/9/5
f 509/9/5 502/9/5 501/9/5
f 509/8/5 501/8/5 508/8/5
f 510/8/5 504/8/5 503/8/5
f 510/9/5 502/9/5 509/9/5
f 510/8/5 503/8/5 502/8/5
f 511/9/5 505/9/5 504/9/5
f 511/8/5 504/8/5 510/8/5
f 512/8/5 496/8/5 505/8/5
f 512/9/5 505/9/5 511/9/5
f 513/8/5 496/8/5 512/8/5
f 516/9/5 515/9/5 514/9/5
f 517/9/5 515/9/5 516/9/5
f 522/13/5 519/13/5 518/13/5
f 523/13/5 519/13/5 522/13/5
f 524/13/5 521/13/5 520/13/5
f 525/13/5 521/13/5 524/13/5
f 526/13/5 524/13/5 523/13/5
f 527/13/5 524/13/5 526/13/5
f 533/1/5 529/1/5 528/1/5
f 534/1/5 529/1/5 533/1/5
f 537/1/5 531/1/5 530/1/5
f 538/1/5 531/1/5 537/1/5
f 540/1/5 533/1/5 532/1/5
f 541/1/5 533/1/5 540/1/5
f 542/1/5 535/1/5 534/1/5
f 543/1/5 535/1/5 542/1/5
f 544/1/5 537/1/5 536/1/5
f 545/1/5 537/1/5 544/1/5
f 546/1/5 539/1/5 538/1/5
f 547/1/5 539/1/5 546/1/5
f 548/1/5 542/1/5 541/1/5
f 549/1/5 542/1/5 548/1/5
f 550/1/5 546/1/5 545/1/5
f 551/1/5 546/1/5 550/1/5
f 557/4/5 553/4/5 552/4/5
f 558/4/5 553/4/5 557/4/5
f 563/10/5 555/10/5 554/10/5
f 564/10/5 555/10/5 563/10/5
f 566/4/5 557/4/5 556/4/5
f 567/4/5 557/4/5 566/4/5
f 568/4/5 559/4/5 558/4/5
f 569/4/5 559/4/5 568/4/5
f 570/6/5 561/6/5 560/6/5
f 571/6/5 561/6/5 570/6/5
f 573/10/5 563/10/5 562/10/5
f 574/10/5 563/10/5 573/10/5
f 575/10/5 565/10/5 564/10/5
f 576/10/5 565/10/5 575/10/5
f 577/4/5 568/4/5 567/4/5
f 578/4/5 568/4/5 577/4/5
f 579/6/5 570/6/5 569/6/5
f 580/6/5 570/6/5 579/6/5
f 581/6/5 572/6/5 571/6/5
f 582/6/5 572/6/5 581/6/5
f 583/10/5 575/10/5 574/10/5
f 584/10/5 575/10/5 583/10/5
f 585/6/5 581/6/5 580/6/5
f 586/6/5 581/6/5 585/6/5
f 587/8/6 588/8/6 597/8/6
f 597/8/6 588/8/6 598/8/6
f 588/9/6 589/9/6 599/9/6
f 598/8/6 588/8/6 599/8/6
f 589/8/6 590/8/6 600/8/6
f 599/9/6 589/9/6 600/9/6
f 600/8/6 590/8/6 601/8/6
f 591/9/6 592/9/6 602/9/6
f 592/8/6 593/8/6 603/8/6
f 602/9/6 592/9/6 603/9/6
f 603/8/6 593/8/6 604/8/6
f 593/9/6 594/9/6 605/9/6
f 604/8/6 593/8/6 605/8/6
f 594/8/6 595/8/6 606/8/6
f 605/9/6 594/9/6 606/9/6
f 606/8/6 595/8/6 607/8/6
f 595/9/6 596/9/6 608/9/6
f 607/8/6 595/8/6 608/8/6
f 608/9/6 596/9/6 609/9/6
f 597/9/6 598/9/6 610/9/6
f 610/9/6 598/9/6 611/9/6
f 599/8/6 600/8/6 612/8/6
f 612/8/6 600/8/6 613/8/6
f 603/9/6 604/9/6 616/9/6
f 605/8/6 606/8/6 617/8/6
f 604/8/6 605/8/6 617/8/6
f 616/9/6 604/9/6 617/9/6
f 617/8/6 606/8/6 618/8/6
f 608/8/6 609/8/6 619/8/6
f 607/8/6 608/8/6 619/8/6
f 613/9/6 614/9/6 620/9/6
f 610/8/6 611/8/6 620/8/6
f 611/8/6 612/8/6 620/8/6
f 612/8/6 613/8/6 620/8/6
f 620/9/6 614/9/6 621/9/6
f 617/8/6 618/8/6 622/8/6
f 616/8/6 617/8/6 622/8/6
f 615/8/6 616/8/6 622/8/6
f 622/8/6 618/8/6 623/8/6
f 623/8/6 618/8/6 624/8/6
f 618/9/6 619/9/6 625/9/6
f 624/8/6 618/8/6 625/8/6
f 619/8/6 609/8/6 626/8/6
f 625/9/6 619/9/6 626/9/6
f 626/8/6 609/8/6 627/8/6
f 627/8/6 609/8/6 628/8/6
f 620/8/6 621/8/6 629/8/6
f 610/8/6 620/8/6 629/8/6
f 621/8/6 622/8/6 629/8/6
f 629/8/6 622/8/6 630/8/6
f 630/8/6 622/8/6 631/8/6
f 631/8/6 622/8/6 632/8/6
f 622/9/6 623/9/6 633/9/6
f 632/8/6 622/8/6 633/8/6
f 633/9/6 623/9/6 634/9/6
f 626/8/6 627/8/6 635/8/6
f 624/8/6 625/8/6 635/8/6
f 625/8/6 626/8/6 635/8/6
f 635/8/6 627/8/6 636/8/6
f 627/9/6 628/9/6 637/9/6
f 636/8/6 627/8/6 637/8/6
f 637/9/6 628/9/6 638/9/6
f 610/8/6 629/8/6 639/8/6
f 629/9/6 630/9/6 639/9/6
f 630/8/6 631/8/6 640/8/6
f 639/9/6 630/9/6 640/9/6
f 640/8/6 631/8/6 641/8/6
f 633/8/6 634/8/6 642/8/6
f 632/8/6 633/8/6 642/8/6
f 642/8/6 634/8/6 643/8/6
f 643/8/6 634/8/6 644/8/6
f 634/9/6 635/9/6 645/9/6
f 644/8/6 634/8/6 645/8/6
f 635/8/6 636/8/6 646/8/6
f 645/9/6 635/9/6 646/9/6
f 646/8/6 636/8/6 647/8/6
f 637/8/6 638/8/6 648/8/6
f 640/8/6 641/8/6 649/8/6
f 639/8/6 640/8/6 649/8/6
f 610/8/6 639/8/6 649/8/6
f 641/8/6 642/8/6 649/8/6
f 642/9/6 643/9/6 650/9/6
f 649/8/6 642/8/6 650/8/6
f 643/8/6 644/8/6 651/8/6
f 650/9/6 643/9/6 651/9/6
f 644/9/6 645/9/6 652/9/6
f 651/8/6 644/8/6 652/8/6
f 646/8/6 647/8/6 653/8/6
f 652/9/6 645/9/6 653/9/6
f 645/8/6 646/8/6 653/8/6
f 647/9/6 648/9/6 654/9/6
f 653/8/6 647/8/6 654/8/6
f 648/8/6 638/8/6 655/8/6
f 654/9/6 648/9/6 655/9/6
f 655/8/6 638/8/6 656/8/6
f 657/2/6 658/2/6 660/2/6
f 660/2/6 658/2/6 661/2/6
f 659/2/6 660/2/6 663/2/6
f 660/1/6 661/1/6 664/1/6
f 663/2/6 660/2/6 664/2/6
f 661/2/6 662/2/6 665/2/6
f 664/1/6 661/1/6 665/1/6
f 665/2/6 662/2/6 666/2/6
f 664/2/6 665/2/6 667/2/6
f 667/2/6 665/2/6 668/2/6
f 669/9/6 670/9/6 671/9/6
f 671/9/6 670/9/6 672/9/6
f 673/13/6 674/13/6 677/13/6
f 677/13/6 674/13/6 678/13/6
f 675/13/6 676/13/6 679/13/6
f 679/13/6 676/13/6 680/13/6
f 678/13/6 679/13/6 681/13/6
f 681/13/6 679/13/6 682/13/6
f 683/1/6 684/1/6 688/1/6
f 688/1/6 684/1/6 689/1/6
f 685/1/6 686/1/6 692/1/6
f 692/1/6 686/1/6 693/1/6
f 687/1/6 688/1/6 695/1/6
f 688/5/6 689/5/6 696/5/6
f 695/1/6 688/1/6 696/1/6
f 689/1/6 690/1/6 697/1/6
f 696/5/6 689/5/6 697/5/6
f 697/1/6 690/1/6 698/1/6
f 691/1/6 692/1/6 699/1/6
f 699/1/6 692/1/6 700/1/6
f 693/1/6 694/1/6 701/1/6
f 701/1/6 694/1/6 702/1/6
f 696/1/6 697/1/6 703/1/6
f 703/1/6 697/1/6 704/1/6
f 700/1/6 701/1/6 705/1/6
f 705/1/6 701/1/6 706/1/6
f 707/3/6 708/3/6 711/3/6
f 711/3/6 708/3/6 712/3/6
f 709/4/6 710/4/6 716/4/6
f 716/4/6 710/4/6 717/4/6
f 713/10/6 714/10/6 720/10/6
f 720/10/6 714/10/6 721/10/6
f 715/4/6 716/4/6 723/4/6
f 716/3/6 717/3/6 724/3/6
f 723/4/6 716/4/6 724/4/6
f 717/4/6 718/4/6 725/4/6
f 724/3/6 717/3/6 725/3/6
f 725/4/6 718/4/6 726/4/6
f 719/10/6 720/10/6 727/10/6
f 727/10/6 720/10/6 728/10/6
f 721/10/6 722/10/6 729/10/6
f 729/10/6 722/10/6 730/10/6
f 724/4/6 725/4/6 731/4/6
f 731/4/6 725/4/6 732/4/6
f 728/10/6 729/10/6 733/10/6
f 733/10/6 729/10/6 734/10/6
f 735/6/6 736/6/6 740/6/6
f 740/6/6 736/6/6 741/6/6
f 737/10/6 738/10/6 743/10/6
f 743/10/6 738/10/6 744/10/6
f 741/6/6 742/6/6 745/6/6
f 739/6/6 740/6/6 745/6/6
f 740/6/6 741/6/6 745/6/6
f 745/6/6 742/6/6 746/6/6
f 746/6/6 742/6/6 747/6/6
f 747/6/6 742/6/6 748/6/6
f 746/6/6 747/6/6 749/6/6
f 749/6/6 747/6/6 750/6/6
