# MagicaVoxel @ Ephtracy

# material
mtllib old_man.mtl
usemtl palette

# normals
vn -1 0 0
vn 1 0 0
vn 0 0 1
vn 0 0 -1
vn 0 -1 0
vn 0 1 0

# texcoords
vt 0.00195313 0.5
vt 0.0332031 0.5
vt 0.0605469 0.5
vt 0.142578 0.5
vt 0.201172 0.5
vt 0.521484 0.5
vt 0.611328 0.5
vt 0.619141 0.5
vt 0.634766 0.5
vt 0.646484 0.5
vt 0.873047 0.5
vt 0.974609 0.5
vt 0.994141 0.5

# verts
v -4 4 3.5
v -4 4 2.5
v -4 4 0.5
v -4 5 3.5
v -4 5 2.5
v -4 5 0.5
v -4 5 -0.5
v -4 6 0.5
v -4 6 -0.5
v -4 8 -0.5
v -4 8 -1.5
v -4 9 0.5
v -4 9 -0.5
v -4 10 0.5
v -4 10 -0.5
v -4 10 -1.5
v -4 10 -2.5
v -4 11 0.5
v -4 11 -2.5
v -3 2 2.5
v -3 2 -2.5
v -3 3 2.5
v -3 3 -2.5
v -3 4 2.5
v -3 4 0.5
v -3 5 2.5
v -3 5 0.5
v -3 5 -0.5
v -3 6 0.5
v -3 6 -0.5
v -3 7 2.5
v -3 7 -2.5
v -3 8 -0.5
v -3 8 -1.5
v -3 9 0.5
v -3 9 -0.5
v -3 10 3.5
v -3 10 2.5
v -3 10 0.5
v -3 10 -1.5
v -3 10 -2.5
v -3 11 3.5
v -3 11 2.5
v -3 11 0.5
v -3 11 -2.5
v -3 12 2.5
v -3 12 -2.5
v -2 0 0.5
v -2 0 -0.5
v -2 1 0.5
v -2 1 -0.5
v -2 2 0.5
v -2 2 -0.5
v -2 7 3.5
v -2 7 2.5
v -2 8 3.5
v -2 8 2.5
v -2 11 -2.5
v -2 11 -3.5
v -2 12 1.5
v -2 12 -1.5
v -2 12 -2.5
v -2 12 -3.5
v -2 13 1.5
v -2 13 -1.5
v -2 13 -2.5
v -1 8 3.5
v -1 8 2.5
v -1 9 3.5
v -1 9 2.5
v -1 9 -2.5
v -1 9 -3.5
v -1 11 -2.5
v -1 11 -3.5
v 1 0 0.5
v 1 0 -0.5
v 1 1 0.5
v 1 1 -0.5
v 1 2 0.5
v 1 2 -0.5
v 1 10 3.5
v 1 10 2.5
v 1 11 3.5
v 1 11 2.5
v 2 4 3.5
v 2 4 2.5
v 2 5 3.5
v 2 5 2.5
v -2 4 3.5
v -2 4 2.5
v -2 5 3.5
v -2 5 2.5
v -1 0 0.5
v -1 0 -0.5
v -1 1 0.5
v -1 1 -0.5
v -1 2 0.5
v -1 2 -0.5
v -1 10 3.5
v -1 10 2.5
v -1 11 3.5
v -1 11 2.5
v 1 8 3.5
v 1 8 2.5
v 1 9 3.5
v 1 9 2.5
v 1 9 -2.5
v 1 9 -3.5
v 1 11 -2.5
v 1 11 -3.5
v 2 0 0.5
v 2 0 -0.5
v 2 1 0.5
v 2 1 -0.5
v 2 2 0.5
v 2 2 -0.5
v 2 7 3.5
v 2 7 2.5
v 2 8 3.5
v 2 8 2.5
v 2 11 -2.5
v 2 11 -3.5
v 2 12 1.5
v 2 12 -1.5
v 2 12 -2.5
v 2 12 -3.5
v 2 13 1.5
v 2 13 -1.5
v 2 13 -2.5
v 3 2 2.5
v 3 2 -2.5
v 3 3 2.5
v 3 3 -2.5
v 3 4 2.5
v 3 4 -0.5
v 3 5 2.5
v 3 5 0.5
v 3 6 0.5
v 3 6 -0.5
v 3 7 2.5
v 3 7 -2.5
v 3 8 -0.5
v 3 8 -1.5
v 3 9 0.5
v 3 9 -0.5
v 3 10 3.5
v 3 10 2.5
v 3 10 0.5
v 3 10 -1.5
v 3 10 -2.5
v 3 11 3.5
v 3 11 2.5
v 3 11 0.5
v 3 11 -2.5
v 3 12 2.5
v 3 12 -2.5
v 4 4 3.5
v 4 4 2.5
v 4 4 -0.5
v 4 5 3.5
v 4 5 2.5
v 4 5 0.5
v 4 6 0.5
v 4 6 -0.5
v 4 8 -0.5
v 4 8 -1.5
v 4 9 0.5
v 4 9 -0.5
v 4 10 0.5
v 4 10 -0.5
v 4 10 -1.5
v 4 10 -2.5
v 4 11 0.5
v 4 11 -2.5
v -4 4 3.5
v -4 5 3.5
v -3 10 3.5
v -3 11 3.5
v -2 4 3.5
v -2 5 3.5
v -2 7 3.5
v -2 8 3.5
v -1 8 3.5
v -1 9 3.5
v -1 10 3.5
v -1 11 3.5
v 1 8 3.5
v 1 9 3.5
v 1 10 3.5
v 1 11 3.5
v 2 4 3.5
v 2 5 3.5
v 2 7 3.5
v 2 8 3.5
v 3 10 3.5
v 3 11 3.5
v 4 4 3.5
v 4 5 3.5
v -3 2 2.5
v -3 3 2.5
v -3 4 2.5
v -3 5 2.5
v -3 7 2.5
v -3 10 2.5
v -3 11 2.5
v -3 12 2.5
v -2 4 2.5
v -2 5 2.5
v -2 6 2.5
v -2 7 2.5
v -2 8 2.5
v -2 9 2.5
v -2 10 2.5
v -1 5 2.5
v -1 6 2.5
v -1 8 2.5
v -1 9 2.5
v -1 10 2.5
v -1 11 2.5
v 1 5 2.5
v 1 6 2.5
v 1 8 2.5
v 1 9 2.5
v 1 10 2.5
v 1 11 2.5
v 2 4 2.5
v 2 5 2.5
v 2 6 2.5
v 2 7 2.5
v 2 8 2.5
v 2 9 2.5
v 2 10 2.5
v 3 2 2.5
v 3 3 2.5
v 3 4 2.5
v 3 5 2.5
v 3 7 2.5
v 3 10 2.5
v 3 11 2.5
v 3 12 2.5
v -2 12 1.5
v -2 13 1.5
v 2 12 1.5
v 2 13 1.5
v -4 5 0.5
v -4 6 0.5
v -4 9 0.5
v -4 10 0.5
v -4 11 0.5
v -3 5 0.5
v -3 6 0.5
v -3 9 0.5
v -3 10 0.5
v -3 11 0.5
v -2 0 0.5
v -2 1 0.5
v -2 2 0.5
v -1 0 0.5
v -1 1 0.5
v -1 2 0.5
v 1 0 0.5
v 1 1 0.5
v 1 2 0.5
v 2 0 0.5
v 2 1 0.5
v 2 2 0.5
v 3 5 0.5
v 3 6 0.5
v 3 9 0.5
v 3 10 0.5
v 3 11 0.5
v 4 5 0.5
v 4 6 0.5
v 4 9 0.5
v 4 10 0.5
v 4 11 0.5
v -4 8 -0.5
v -4 9 -0.5
v -3 8 -0.5
v -3 9 -0.5
v 3 8 -0.5
v 3 9 -0.5
v 4 8 -0.5
v 4 9 -0.5
v -4 4 0.5
v -4 5 0.5
v -3 4 0.5
v -3 5 0.5
v -4 5 -0.5
v -4 6 -0.5
v -3 5 -0.5
v -3 6 -0.5
v -2 0 -0.5
v -2 1 -0.5
v -2 2 -0.5
v -1 0 -0.5
v -1 1 -0.5
v -1 2 -0.5
v 1 0 -0.5
v 1 1 -0.5
v 1 2 -0.5
v 2 0 -0.5
v 2 1 -0.5
v 2 2 -0.5
v 3 4 -0.5
v 3 6 -0.5
v 4 4 -0.5
v 4 6 -0.5
v -4 8 -1.5
v -4 10 -1.5
v -3 8 -1.5
v -3 10 -1.5
v 3 8 -1.5
v 3 10 -1.5
v 4 8 -1.5
v 4 10 -1.5
v -4 10 -2.5
v -4 11 -2.5
v -3 2 -2.5
v -3 3 -2.5
v -3 7 -2.5
v -3 10 -2.5
v -3 11 -2.5
v -3 12 -2.5
v -2 11 -2.5
v -2 12 -2.5
v -2 13 -2.5
v -1 9 -2.5
v -1 11 -2.5
v 1 9 -2.5
v 1 11 -2.5
v 2 11 -2.5
v 2 12 -2.5
v 2 13 -2.5
v 3 2 -2.5
v 3 3 -2.5
v 3 7 -2.5
v 3 10 -2.5
v 3 11 -2.5
v 3 12 -2.5
v 4 10 -2.5
v 4 11 -2.5
v -2 11 -3.5
v -2 12 -3.5
v -1 9 -3.5
v -1 11 -3.5
v 1 9 -3.5
v 1 11 -3.5
v 2 11 -3.5
v 2 12 -3.5
v -2 0 0.5
v -1 0 0.5
v 1 0 0.5
v 2 0 0.5
v -2 0 -0.5
v -1 0 -0.5
v 1 0 -0.5
v 2 0 -0.5
v -3 2 2.5
v 3 2 2.5
v -2 2 0.5
v -1 2 0.5
v 1 2 0.5
v 2 2 0.5
v -2 2 -0.5
v -1 2 -0.5
v 1 2 -0.5
v 2 2 -0.5
v -3 2 -2.5
v 3 2 -2.5
v -4 4 3.5
v -2 4 3.5
v 2 4 3.5
v 4 4 3.5
v -4 4 2.5
v -3 4 2.5
v -2 4 2.5
v 2 4 2.5
v 3 4 2.5
v 4 4 2.5
v -4 4 0.5
v -3 4 0.5
v 3 4 -0.5
v 4 4 -0.5
v -4 5 0.5
v -3 5 0.5
v -4 5 -0.5
v -3 5 -0.5
v -2 7 3.5
v 2 7 3.5
v -2 7 2.5
v 2 7 2.5
v -4 8 -0.5
v -3 8 -0.5
v 3 8 -0.5
v 4 8 -0.5
v -4 8 -1.5
v -3 8 -1.5
v 3 8 -1.5
v 4 8 -1.5
v -4 9 0.5
v -3 9 0.5
v 3 9 0.5
v 4 9 0.5
v -4 9 -0.5
v -3 9 -0.5
v 3 9 -0.5
v 4 9 -0.5
v -1 9 -2.5
v 1 9 -2.5
v -1 9 -3.5
v 1 9 -3.5
v -3 10 3.5
v -1 10 3.5
v 1 10 3.5
v 3 10 3.5
v -3 10 2.5
v -2 10 2.5
v -1 10 2.5
v 1 10 2.5
v 2 10 2.5
v 3 10 2.5
v -4 10 -1.5
v -3 10 -1.5
v 3 10 -1.5
v 4 10 -1.5
v -4 10 -2.5
v -3 10 -2.5
v 3 10 -2.5
v 4 10 -2.5
v -2 11 -2.5
v -1 11 -2.5
v 1 11 -2.5
v 2 11 -2.5
v -2 11 -3.5
v -1 11 -3.5
v 1 11 -3.5
v 2 11 -3.5
v -4 5 3.5
v -2 5 3.5
v 2 5 3.5
v 4 5 3.5
v -4 5 2.5
v -3 5 2.5
v -2 5 2.5
v 2 5 2.5
v 3 5 2.5
v 4 5 2.5
v -4 5 0.5
v -3 5 0.5
v 3 5 0.5
v 4 5 0.5
v -4 6 0.5
v -3 6 0.5
v 3 6 0.5
v 4 6 0.5
v -4 6 -0.5
v -3 6 -0.5
v 3 6 -0.5
v 4 6 -0.5
v -2 8 3.5
v -1 8 3.5
v 1 8 3.5
v 2 8 3.5
v -2 8 2.5
v -1 8 2.5
v 1 8 2.5
v 2 8 2.5
v -1 9 3.5
v 1 9 3.5
v -1 9 2.5
v 1 9 2.5
v -3 11 3.5
v -1 11 3.5
v 1 11 3.5
v 3 11 3.5
v -3 11 2.5
v -1 11 2.5
v 1 11 2.5
v 3 11 2.5
v -4 11 0.5
v -3 11 0.5
v 3 11 0.5
v 4 11 0.5
v -4 11 -2.5
v -3 11 -2.5
v 3 11 -2.5
v 4 11 -2.5
v -3 12 2.5
v 3 12 2.5
v -2 12 1.5
v 2 12 1.5
v -2 12 -1.5
v 2 12 -1.5
v -3 12 -2.5
v -2 12 -2.5
v 2 12 -2.5
v 3 12 -2.5
v -2 12 -3.5
v 2 12 -3.5
v -2 13 1.5
v 2 13 1.5
v -2 13 -1.5
v 2 13 -1.5
v -2 13 -2.5
v 2 13 -2.5

# faces
f 4/3/1 2/3/1 1/3/1
f 5/8/1 3/8/1 2/8/1
f 5/3/1 2/3/1 4/3/1
f 6/8/1 3/8/1 5/8/1
f 8/8/1 7/8/1 6/8/1
f 9/8/1 7/8/1 8/8/1
f 13/12/1 11/12/1 10/12/1
f 14/3/1 13/3/1 12/3/1
f 15/12/1 11/12/1 13/12/1
f 15/3/1 13/3/1 14/3/1
f 16/12/1 11/12/1 15/12/1
f 18/12/1 15/12/1 14/12/1
f 18/12/1 17/12/1 16/12/1
f 18/12/1 16/12/1 15/12/1
f 19/12/1 17/12/1 18/12/1
f 22/5/1 21/5/1 20/5/1
f 23/5/1 21/5/1 22/5/1
f 24/8/1 23/8/1 22/8/1
f 25/8/1 23/8/1 24/8/1
f 27/8/1 23/8/1 25/8/1
f 28/8/1 23/8/1 27/8/1
f 29/8/1 27/8/1 26/8/1
f 30/8/1 23/8/1 28/8/1
f 31/8/1 29/8/1 26/8/1
f 31/8/1 30/8/1 29/8/1
f 32/8/1 23/8/1 30/8/1
f 32/8/1 30/8/1 31/8/1
f 33/2/1 32/2/1 31/2/1
f 34/2/1 32/2/1 33/2/1
f 35/2/1 33/2/1 31/2/1
f 36/2/1 33/2/1 35/2/1
f 38/2/1 35/2/1 31/2/1
f 39/2/1 35/2/1 38/2/1
f 40/2/1 32/2/1 34/2/1
f 41/2/1 32/2/1 40/2/1
f 42/12/1 38/12/1 37/12/1
f 43/2/1 39/2/1 38/2/1
f 43/12/1 38/12/1 42/12/1
f 44/2/1 39/2/1 43/2/1
f 46/2/1 45/2/1 44/2/1
f 46/2/1 44/2/1 43/2/1
f 47/2/1 45/2/1 46/2/1
f 50/11/1 49/11/1 48/11/1
f 51/11/1 49/11/1 50/11/1
f 52/5/1 51/5/1 50/5/1
f 53/5/1 51/5/1 52/5/1
f 56/12/1 55/12/1 54/12/1
f 57/12/1 55/12/1 56/12/1
f 62/12/1 59/12/1 58/12/1
f 63/12/1 59/12/1 62/12/1
f 64/2/1 61/2/1 60/2/1
f 65/12/1 62/12/1 61/12/1
f 65/2/1 61/2/1 64/2/1
f 66/12/1 62/12/1 65/12/1
f 69/3/1 68/3/1 67/3/1
f 70/3/1 68/3/1 69/3/1
f 73/12/1 72/12/1 71/12/1
f 74/12/1 72/12/1 73/12/1
f 77/11/1 76/11/1 75/11/1
f 78/11/1 76/11/1 77/11/1
f 79/5/1 78/5/1 77/5/1
f 80/5/1 78/5/1 79/5/1
f 83/12/1 82/12/1 81/12/1
f 84/12/1 82/12/1 83/12/1
f 87/3/1 86/3/1 85/3/1
f 88/3/1 86/3/1 87/3/1
f 89/3/2 90/3/2 91/3/2
f 91/3/2 90/3/2 92/3/2
f 93/11/2 94/11/2 95/11/2
f 95/11/2 94/11/2 96/11/2
f 95/5/2 96/5/2 97/5/2
f 97/5/2 96/5/2 98/5/2
f 99/12/2 100/12/2 101/12/2
f 101/12/2 100/12/2 102/12/2
f 103/3/2 104/3/2 105/3/2
f 105/3/2 104/3/2 106/3/2
f 107/12/2 108/12/2 109/12/2
f 109/12/2 108/12/2 110/12/2
f 111/11/2 112/11/2 113/11/2
f 113/11/2 112/11/2 114/11/2
f 113/5/2 114/5/2 115/5/2
f 115/5/2 114/5/2 116/5/2
f 117/12/2 118/12/2 119/12/2
f 119/12/2 118/12/2 120/12/2
f 121/12/2 122/12/2 125/12/2
f 125/12/2 122/12/2 126/12/2
f 123/2/2 124/2/2 127/2/2
f 124/12/2 125/12/2 128/12/2
f 127/2/2 124/2/2 128/2/2
f 128/12/2 125/12/2 129/12/2
f 130/5/2 131/5/2 132/5/2
f 132/5/2 131/5/2 133/5/2
f 132/8/2 133/8/2 134/8/2
f 134/8/2 133/8/2 135/8/2
f 136/8/2 137/8/2 138/8/2
f 135/8/2 133/8/2 139/8/2
f 136/8/2 138/8/2 140/8/2
f 138/8/2 139/8/2 140/8/2
f 139/8/2 133/8/2 141/8/2
f 140/8/2 139/8/2 141/8/2
f 140/2/2 141/2/2 142/2/2
f 142/2/2 141/2/2 143/2/2
f 140/2/2 142/2/2 144/2/2
f 144/2/2 142/2/2 145/2/2
f 140/2/2 144/2/2 147/2/2
f 147/2/2 144/2/2 148/2/2
f 143/2/2 141/2/2 149/2/2
f 149/2/2 141/2/2 150/2/2
f 146/12/2 147/12/2 151/12/2
f 147/2/2 148/2/2 152/2/2
f 151/12/2 147/12/2 152/12/2
f 152/2/2 148/2/2 153/2/2
f 153/2/2 154/2/2 155/2/2
f 152/2/2 153/2/2 155/2/2
f 155/2/2 154/2/2 156/2/2
f 157/3/2 158/3/2 160/3/2
f 158/8/2 159/8/2 161/8/2
f 160/3/2 158/3/2 161/3/2
f 161/8/2 159/8/2 162/8/2
f 162/8/2 159/8/2 163/8/2
f 163/8/2 159/8/2 164/8/2
f 165/12/2 166/12/2 168/12/2
f 167/3/2 168/3/2 169/3/2
f 168/12/2 166/12/2 170/12/2
f 169/3/2 168/3/2 170/3/2
f 170/12/2 166/12/2 171/12/2
f 169/12/2 170/12/2 173/12/2
f 171/12/2 172/12/2 173/12/2
f 170/12/2 171/12/2 173/12/2
f 173/12/2 172/12/2 174/12/2
f 179/3/3 176/3/3 175/3/3
f 180/3/3 176/3/3 179/3/3
f 183/12/3 182/12/3 181/12/3
f 185/12/3 178/12/3 177/12/3
f 186/12/3 178/12/3 185/12/3
f 187/3/3 184/3/3 183/3/3
f 187/12/3 183/12/3 181/12/3
f 188/3/3 184/3/3 187/3/3
f 193/12/3 187/12/3 181/12/3
f 194/12/3 187/12/3 193/12/3
f 195/12/3 190/12/3 189/12/3
f 196/12/3 190/12/3 195/12/3
f 197/3/3 192/3/3 191/3/3
f 198/3/3 192/3/3 197/3/3
f 207/8/3 201/8/3 200/8/3
f 208/8/3 203/8/3 202/8/3
f 209/8/3 203/8/3 208/8/3
f 210/2/3 204/2/3 203/2/3
f 210/8/3 203/8/3 209/8/3
f 211/2/3 204/2/3 210/2/3
f 212/2/3 204/2/3 211/2/3
f 213/2/3 204/2/3 212/2/3
f 214/8/3 209/8/3 208/8/3
f 214/8/3 208/8/3 207/8/3
f 215/1/3 210/1/3 209/1/3
f 215/8/3 209/8/3 214/8/3
f 216/2/3 212/2/3 211/2/3
f 217/13/3 213/13/3 212/13/3
f 217/2/3 212/2/3 216/2/3
f 218/13/3 213/13/3 217/13/3
f 219/2/3 206/2/3 205/2/3
f 220/8/3 214/8/3 207/8/3
f 220/1/3 215/1/3 214/1/3
f 221/1/3 210/1/3 215/1/3
f 221/1/3 215/1/3 220/1/3
f 223/2/3 218/2/3 217/2/3
f 223/2/3 219/2/3 218/2/3
f 224/2/3 219/2/3 223/2/3
f 225/2/3 206/2/3 219/2/3
f 225/2/3 219/2/3 224/2/3
f 226/8/3 207/8/3 200/8/3
f 226/8/3 221/8/3 220/8/3
f 226/8/3 220/8/3 207/8/3
f 227/8/3 221/8/3 226/8/3
f 228/1/3 210/1/3 221/1/3
f 228/8/3 221/8/3 227/8/3
f 229/1/3 210/1/3 228/1/3
f 230/2/3 223/2/3 222/2/3
f 231/13/3 224/13/3 223/13/3
f 231/2/3 223/2/3 230/2/3
f 232/13/3 224/13/3 231/13/3
f 233/5/3 200/5/3 199/5/3
f 234/8/3 226/8/3 200/8/3
f 234/5/3 200/5/3 233/5/3
f 235/8/3 226/8/3 234/8/3
f 236/8/3 229/8/3 228/8/3
f 236/8/3 228/8/3 227/8/3
f 237/2/3 232/2/3 231/2/3
f 237/8/3 229/8/3 236/8/3
f 237/2/3 230/2/3 229/2/3
f 237/2/3 231/2/3 230/2/3
f 238/2/3 232/2/3 237/2/3
f 239/2/3 206/2/3 225/2/3
f 240/2/3 206/2/3 239/2/3
f 243/2/3 242/2/3 241/2/3
f 244/2/3 242/2/3 243/2/3
f 250/8/3 246/8/3 245/8/3
f 251/8/3 246/8/3 250/8/3
f 252/3/3 248/3/3 247/3/3
f 253/12/3 249/12/3 248/12/3
f 253/3/3 248/3/3 252/3/3
f 254/12/3 249/12/3 253/12/3
f 258/11/3 256/11/3 255/11/3
f 259/5/3 257/5/3 256/5/3
f 259/11/3 256/11/3 258/11/3
f 260/5/3 257/5/3 259/5/3
f 264/11/3 262/11/3 261/11/3
f 265/5/3 263/5/3 262/5/3
f 265/11/3 262/11/3 264/11/3
f 266/5/3 263/5/3 265/5/3
f 272/8/3 268/8/3 267/8/3
f 273/8/3 268/8/3 272/8/3
f 274/3/3 270/3/3 269/3/3
f 275/12/3 271/12/3 270/12/3
f 275/3/3 270/3/3 274/3/3
f 276/12/3 271/12/3 275/12/3
f 279/12/3 278/12/3 277/12/3
f 280/12/3 278/12/3 279/12/3
f 283/12/3 282/12/3 281/12/3
f 284/12/3 282/12/3 283/12/3
f 285/8/4 286/8/4 287/8/4
f 287/8/4 286/8/4 288/8/4
f 289/8/4 290/8/4 291/8/4
f 291/8/4 290/8/4 292/8/4
f 293/11/4 294/11/4 296/11/4
f 294/5/4 295/5/4 297/5/4
f 296/11/4 294/11/4 297/11/4
f 297/5/4 295/5/4 298/5/4
f 299/11/4 300/11/4 302/11/4
f 300/5/4 301/5/4 303/5/4
f 302/11/4 300/11/4 303/11/4
f 303/5/4 301/5/4 304/5/4
f 305/8/4 306/8/4 307/8/4
f 307/8/4 306/8/4 308/8/4
f 309/12/4 310/12/4 311/12/4
f 311/12/4 310/12/4 312/12/4
f 313/12/4 314/12/4 315/12/4
f 315/12/4 314/12/4 316/12/4
f 317/12/4 318/12/4 322/12/4
f 322/12/4 318/12/4 323/12/4
f 321/2/4 322/2/4 325/2/4
f 323/2/4 324/2/4 325/2/4
f 322/2/4 323/2/4 325/2/4
f 325/2/4 324/2/4 326/2/4
f 321/2/4 325/2/4 328/2/4
f 328/2/4 325/2/4 329/2/4
f 321/2/4 328/2/4 330/2/4
f 330/2/4 331/2/4 332/2/4
f 326/12/4 327/12/4 333/12/4
f 333/12/4 327/12/4 334/12/4
f 319/5/4 320/5/4 335/5/4
f 320/8/4 321/8/4 336/8/4
f 335/5/4 320/5/4 336/5/4
f 330/2/4 332/2/4 337/2/4
f 336/8/4 321/8/4 337/8/4
f 321/2/4 330/2/4 337/2/4
f 332/2/4 333/2/4 337/2/4
f 337/2/4 333/2/4 338/2/4
f 338/2/4 333/2/4 339/2/4
f 339/2/4 333/2/4 340/2/4
f 338/12/4 339/12/4 341/12/4
f 341/12/4 339/12/4 342/12/4
f 343/12/4 344/12/4 346/12/4
f 345/12/4 346/12/4 347/12/4
f 346/12/4 344/12/4 348/12/4
f 347/12/4 346/12/4 348/12/4
f 348/12/4 344/12/4 349/12/4
f 349/12/4 344/12/4 350/12/4
f 355/11/5 352/11/5 351/11/5
f 356/11/5 352/11/5 355/11/5
f 357/11/5 354/11/5 353/11/5
f 358/11/5 354/11/5 357/11/5
f 361/5/5 360/5/5 359/5/5
f 362/5/5 360/5/5 361/5/5
f 363/5/5 360/5/5 362/5/5
f 364/5/5 360/5/5 363/5/5
f 365/5/5 361/5/5 359/5/5
f 366/5/5 363/5/5 362/5/5
f 367/5/5 363/5/5 366/5/5
f 368/5/5 360/5/5 364/5/5
f 369/5/5 367/5/5 366/5/5
f 369/5/5 368/5/5 367/5/5
f 369/5/5 365/5/5 359/5/5
f 369/5/5 366/5/5 365/5/5
f 370/5/5 360/5/5 368/5/5
f 370/5/5 368/5/5 369/5/5
f 375/3/5 372/3/5 371/3/5
f 376/3/5 372/3/5 375/3/5
f 377/3/5 372/3/5 376/3/5
f 378/3/5 374/3/5 373/3/5
f 379/3/5 374/3/5 378/3/5
f 380/3/5 374/3/5 379/3/5
f 381/8/5 376/8/5 375/8/5
f 382/8/5 376/8/5 381/8/5
f 383/8/5 380/8/5 379/8/5
f 384/8/5 380/8/5 383/8/5
f 387/8/5 386/8/5 385/8/5
f 388/8/5 386/8/5 387/8/5
f 391/12/5 390/12/5 389/12/5
f 392/12/5 390/12/5 391/12/5
f 397/12/5 394/12/5 393/12/5
f 398/12/5 394/12/5 397/12/5
f 399/12/5 396/12/5 395/12/5
f 400/12/5 396/12/5 399/12/5
f 405/3/5 402/3/5 401/3/5
f 406/3/5 402/3/5 405/3/5
f 407/3/5 404/3/5 403/3/5
f 408/3/5 404/3/5 407/3/5
f 411/12/5 410/12/5 409/12/5
f 412/12/5 410/12/5 411/12/5
f 417/12/5 414/12/5 413/12/5
f 418/12/5 414/12/5 417/12/5
f 419/12/5 414/12/5 418/12/5
f 420/12/5 416/12/5 415/12/5
f 421/12/5 416/12/5 420/12/5
f 422/12/5 416/12/5 421/12/5
f 427/12/5 424/12/5 423/12/5
f 428/12/5 424/12/5 427/12/5
f 429/12/5 426/12/5 425/12/5
f 430/12/5 426/12/5 429/12/5
f 435/12/5 432/12/5 431/12/5
f 436/12/5 432/12/5 435/12/5
f 437/12/5 434/12/5 433/12/5
f 438/12/5 434/12/5 437/12/5
f 439/3/6 440/3/6 443/3/6
f 443/3/6 440/3/6 444/3/6
f 444/3/6 440/3/6 445/3/6
f 441/3/6 442/3/6 446/3/6
f 446/3/6 442/3/6 447/3/6
f 447/3/6 442/3/6 448/3/6
f 443/8/6 444/8/6 449/8/6
f 449/8/6 444/8/6 450/8/6
f 447/8/6 448/8/6 451/8/6
f 451/8/6 448/8/6 452/8/6
f 453/8/6 454/8/6 457/8/6
f 457/8/6 454/8/6 458/8/6
f 455/8/6 456/8/6 459/8/6
f 459/8/6 456/8/6 460/8/6
f 461/12/6 462/12/6 465/12/6
f 465/12/6 462/12/6 466/12/6
f 463/12/6 464/12/6 467/12/6
f 467/12/6 464/12/6 468/12/6
f 469/3/6 470/3/6 471/3/6
f 471/3/6 470/3/6 472/3/6
f 473/12/6 474/12/6 477/12/6
f 477/12/6 474/12/6 478/12/6
f 475/12/6 476/12/6 479/12/6
f 479/12/6 476/12/6 480/12/6
f 481/12/6 482/12/6 485/12/6
f 485/12/6 482/12/6 486/12/6
f 483/12/6 484/12/6 487/12/6
f 487/12/6 484/12/6 488/12/6
f 489/2/6 490/2/6 491/2/6
f 491/2/6 490/2/6 492/2/6
f 489/2/6 491/2/6 493/2/6
f 492/2/6 490/2/6 494/2/6
f 489/2/6 493/2/6 495/2/6
f 495/2/6 493/2/6 496/2/6
f 494/2/6 490/2/6 497/2/6
f 497/2/6 490/2/6 498/2/6
f 496/12/6 497/12/6 499/12/6
f 499/12/6 497/12/6 500/12/6
f 501/2/6 502/2/6 503/2/6
f 503/2/6 502/2/6 504/2/6
f 503/12/6 504/12/6 505/12/6
f 505/12/6 504/12/6 506/12/6
