# MagicaVoxel @ Ephtracy

# material
mtllib paperboy.mtl
usemtl palette

# normals
vn -1 0 0
vn 1 0 0
vn 0 0 1
vn 0 0 -1
vn 0 -1 0
vn 0 1 0

# texcoords
vt 0.0332031 0.5
vt 0.0605469 0.5
vt 0.142578 0.5
vt 0.208984 0.5
vt 0.275391 0.5
vt 0.369141 0.5
vt 0.521484 0.5
vt 0.611328 0.5
vt 0.615234 0.5
vt 0.634766 0.5
vt 0.646484 0.5
vt 0.841797 0.5
vt 0.962891 0.5
vt 0.994141 0.5

# verts
v -4 3 0.5
v -4 3 -0.5
v -4 4 0.5
v -4 4 -0.5
v -4 5 0.5
v -4 5 -0.5
v -4 7 0.5
v -4 7 -0.5
v -4 7 -2.5
v -4 8 1.5
v -4 8 0.5
v -4 8 -0.5
v -4 9 -1.5
v -4 9 -2.5
v -4 10 1.5
v -4 10 -1.5
v -3 2 2.5
v -3 2 -2.5
v -3 3 2.5
v -3 3 0.5
v -3 3 -0.5
v -3 3 -2.5
v -3 4 0.5
v -3 4 -0.5
v -3 5 2.5
v -3 5 0.5
v -3 5 -0.5
v -3 5 -2.5
v -3 7 0.5
v -3 7 -0.5
v -3 7 -2.5
v -3 7 -3.5
v -3 8 1.5
v -3 8 0.5
v -3 9 2.5
v -3 9 1.5
v -3 9 -1.5
v -3 9 -2.5
v -3 9 -3.5
v -3 10 2.5
v -3 10 1.5
v -3 10 -1.5
v -3 10 -2.5
v -2 0 0.5
v -2 0 -0.5
v -2 1 0.5
v -2 1 -0.5
v -2 2 0.5
v -2 2 -0.5
v -2 4 -2.5
v -2 4 -3.5
v -2 5 -2.5
v -2 5 -3.5
v -2 9 3.5
v -2 9 2.5
v -2 9 -2.5
v -2 9 -3.5
v -2 10 3.5
v -2 10 2.5
v -2 10 1.5
v -2 10 -1.5
v -2 10 -2.5
v -2 10 -3.5
v -2 11 1.5
v -2 11 -1.5
v -1 6 3.5
v -1 6 2.5
v -1 7 3.5
v -1 7 2.5
v 1 0 0.5
v 1 0 -0.5
v 1 1 0.5
v 1 1 -0.5
v 1 2 0.5
v 1 2 -0.5
v -1 0 0.5
v -1 0 -0.5
v -1 1 0.5
v -1 1 -0.5
v -1 2 0.5
v -1 2 -0.5
v 1 6 3.5
v 1 6 2.5
v 1 7 3.5
v 1 7 2.5
v 2 0 0.5
v 2 0 -0.5
v 2 1 0.5
v 2 1 -0.5
v 2 2 0.5
v 2 2 -0.5
v 2 4 -2.5
v 2 4 -3.5
v 2 5 -2.5
v 2 5 -3.5
v 2 9 3.5
v 2 9 2.5
v 2 9 -2.5
v 2 9 -3.5
v 2 10 3.5
v 2 10 2.5
v 2 10 1.5
v 2 10 -1.5
v 2 10 -2.5
v 2 10 -3.5
v 2 11 1.5
v 2 11 -1.5
v 3 2 2.5
v 3 2 -2.5
v 3 3 2.5
v 3 3 0.5
v 3 3 -0.5
v 3 3 -2.5
v 3 4 0.5
v 3 4 -0.5
v 3 5 2.5
v 3 5 0.5
v 3 5 -0.5
v 3 5 -2.5
v 3 7 0.5
v 3 7 -0.5
v 3 7 -2.5
v 3 7 -3.5
v 3 8 1.5
v 3 8 0.5
v 3 9 2.5
v 3 9 1.5
v 3 9 -1.5
v 3 9 -2.5
v 3 9 -3.5
v 3 10 2.5
v 3 10 1.5
v 3 10 -1.5
v 3 10 -2.5
v 4 3 0.5
v 4 3 -0.5
v 4 4 0.5
v 4 4 -0.5
v 4 5 0.5
v 4 5 -0.5
v 4 7 0.5
v 4 7 -0.5
v 4 7 -2.5
v 4 8 1.5
v 4 8 0.5
v 4 8 -0.5
v 4 9 -1.5
v 4 9 -2.5
v 4 10 1.5
v 4 10 -1.5
v -2 9 3.5
v -2 10 3.5
v -1 6 3.5
v -1 7 3.5
v 1 6 3.5
v 1 7 3.5
v 2 9 3.5
v 2 10 3.5
v -3 2 2.5
v -3 3 2.5
v -3 5 2.5
v -3 9 2.5
v -3 10 2.5
v -2 7 2.5
v -2 8 2.5
v -2 9 2.5
v -2 10 2.5
v -1 3 2.5
v -1 5 2.5
v -1 6 2.5
v -1 7 2.5
v -1 8 2.5
v 1 3 2.5
v 1 5 2.5
v 1 6 2.5
v 1 7 2.5
v 1 8 2.5
v 2 7 2.5
v 2 8 2.5
v 2 9 2.5
v 2 10 2.5
v 3 2 2.5
v 3 3 2.5
v 3 5 2.5
v 3 9 2.5
v 3 10 2.5
v -4 8 1.5
v -4 10 1.5
v -3 8 1.5
v -3 9 1.5
v -3 10 1.5
v -2 10 1.5
v -2 11 1.5
v 2 10 1.5
v 2 11 1.5
v 3 8 1.5
v 3 9 1.5
v 3 10 1.5
v 4 8 1.5
v 4 10 1.5
v -4 3 0.5
v -4 4 0.5
v -4 5 0.5
v -4 7 0.5
v -4 8 0.5
v -3 3 0.5
v -3 4 0.5
v -3 5 0.5
v -3 7 0.5
v -3 8 0.5
v -2 0 0.5
v -2 1 0.5
v -2 2 0.5
v -1 0 0.5
v -1 1 0.5
v -1 2 0.5
v 1 0 0.5
v 1 1 0.5
v 1 2 0.5
v 2 0 0.5
v 2 1 0.5
v 2 2 0.5
v 3 3 0.5
v 3 4 0.5
v 3 5 0.5
v 3 7 0.5
v 3 8 0.5
v 4 3 0.5
v 4 4 0.5
v 4 5 0.5
v 4 7 0.5
v 4 8 0.5
v -4 3 -0.5
v -4 4 -0.5
v -4 5 -0.5
v -3 3 -0.5
v -3 4 -0.5
v -3 5 -0.5
v -2 0 -0.5
v -2 1 -0.5
v -2 2 -0.5
v -1 0 -0.5
v -1 1 -0.5
v -1 2 -0.5
v 1 0 -0.5
v 1 1 -0.5
v 1 2 -0.5
v 2 0 -0.5
v 2 1 -0.5
v 2 2 -0.5
v 3 3 -0.5
v 3 4 -0.5
v 3 5 -0.5
v 4 3 -0.5
v 4 4 -0.5
v 4 5 -0.5
v -4 9 -1.5
v -4 10 -1.5
v -3 9 -1.5
v -3 10 -1.5
v -2 10 -1.5
v -2 11 -1.5
v 2 10 -1.5
v 2 11 -1.5
v 3 9 -1.5
v 3 10 -1.5
v 4 9 -1.5
v 4 10 -1.5
v -4 7 -2.5
v -4 9 -2.5
v -3 2 -2.5
v -3 3 -2.5
v -3 5 -2.5
v -3 7 -2.5
v -3 9 -2.5
v -3 10 -2.5
v -2 4 -2.5
v -2 5 -2.5
v -2 9 -2.5
v -2 10 -2.5
v 2 4 -2.5
v 2 5 -2.5
v 2 9 -2.5
v 2 10 -2.5
v 3 2 -2.5
v 3 3 -2.5
v 3 5 -2.5
v 3 7 -2.5
v 3 9 -2.5
v 3 10 -2.5
v 4 7 -2.5
v 4 9 -2.5
v -3 7 -3.5
v -3 9 -3.5
v -2 4 -3.5
v -2 5 -3.5
v -2 9 -3.5
v -2 10 -3.5
v 2 4 -3.5
v 2 5 -3.5
v 2 9 -3.5
v 2 10 -3.5
v 3 7 -3.5
v 3 9 -3.5
v -2 0 0.5
v -1 0 0.5
v 1 0 0.5
v 2 0 0.5
v -2 0 -0.5
v -1 0 -0.5
v 1 0 -0.5
v 2 0 -0.5
v -3 2 2.5
v 3 2 2.5
v -2 2 0.5
v -1 2 0.5
v 1 2 0.5
v 2 2 0.5
v -2 2 -0.5
v -1 2 -0.5
v 1 2 -0.5
v 2 2 -0.5
v -3 2 -2.5
v 3 2 -2.5
v -4 3 0.5
v -3 3 0.5
v 3 3 0.5
v 4 3 0.5
v -4 3 -0.5
v -3 3 -0.5
v 3 3 -0.5
v 4 3 -0.5
v -2 4 -2.5
v 2 4 -2.5
v -2 4 -3.5
v 2 4 -3.5
v -1 6 3.5
v 1 6 3.5
v -1 6 2.5
v 1 6 2.5
v -4 7 0.5
v -3 7 0.5
v 3 7 0.5
v 4 7 0.5
v -4 7 -0.5
v -3 7 -0.5
v 3 7 -0.5
v 4 7 -0.5
v -4 7 -2.5
v -3 7 -2.5
v 3 7 -2.5
v 4 7 -2.5
v -3 7 -3.5
v 3 7 -3.5
v -4 8 1.5
v -3 8 1.5
v 3 8 1.5
v 4 8 1.5
v -4 8 0.5
v -3 8 0.5
v 3 8 0.5
v 4 8 0.5
v -2 9 3.5
v 2 9 3.5
v -2 9 2.5
v 2 9 2.5
v -4 5 0.5
v -3 5 0.5
v 3 5 0.5
v 4 5 0.5
v -4 5 -0.5
v -3 5 -0.5
v 3 5 -0.5
v 4 5 -0.5
v -2 5 -2.5
v 2 5 -2.5
v -2 5 -3.5
v 2 5 -3.5
v -1 7 3.5
v 1 7 3.5
v -1 7 2.5
v 1 7 2.5
v -4 9 -1.5
v -3 9 -1.5
v 3 9 -1.5
v 4 9 -1.5
v -4 9 -2.5
v -3 9 -2.5
v -2 9 -2.5
v 2 9 -2.5
v 3 9 -2.5
v 4 9 -2.5
v -3 9 -3.5
v -2 9 -3.5
v 2 9 -3.5
v 3 9 -3.5
v -2 10 3.5
v 2 10 3.5
v -3 10 2.5
v -2 10 2.5
v 2 10 2.5
v 3 10 2.5
v -4 10 1.5
v -3 10 1.5
v -2 10 1.5
v 2 10 1.5
v 3 10 1.5
v 4 10 1.5
v -4 10 -1.5
v -3 10 -1.5
v -2 10 -1.5
v 2 10 -1.5
v 3 10 -1.5
v 4 10 -1.5
v -3 10 -2.5
v -2 10 -2.5
v 2 10 -2.5
v 3 10 -2.5
v -2 10 -3.5
v 2 10 -3.5
v -2 11 1.5
v 2 11 1.5
v -2 11 -1.5
v 2 11 -1.5

# faces
f 3/2/1 2/2/1 1/2/1
f 4/2/1 2/2/1 3/2/1
f 5/5/1 4/5/1 3/5/1
f 6/5/1 4/5/1 5/5/1
f 11/2/1 8/2/1 7/2/1
f 12/6/1 9/6/1 8/6/1
f 12/2/1 8/2/1 11/2/1
f 13/6/1 11/6/1 10/6/1
f 13/6/1 9/6/1 12/6/1
f 13/6/1 12/6/1 11/6/1
f 14/6/1 9/6/1 13/6/1
f 15/6/1 13/6/1 10/6/1
f 16/6/1 13/6/1 15/6/1
f 19/9/1 18/9/1 17/9/1
f 20/9/1 18/9/1 19/9/1
f 21/9/1 18/9/1 20/9/1
f 22/9/1 18/9/1 21/9/1
f 23/5/1 20/5/1 19/5/1
f 24/5/1 22/5/1 21/5/1
f 25/5/1 23/5/1 19/5/1
f 26/5/1 23/5/1 25/5/1
f 27/5/1 22/5/1 24/5/1
f 28/5/1 22/5/1 27/5/1
f 29/1/1 26/1/1 25/1/1
f 29/1/1 27/1/1 26/1/1
f 29/1/1 28/1/1 27/1/1
f 30/1/1 28/1/1 29/1/1
f 31/1/1 28/1/1 30/1/1
f 33/1/1 29/1/1 25/1/1
f 34/1/1 29/1/1 33/1/1
f 35/1/1 33/1/1 25/1/1
f 36/1/1 33/1/1 35/1/1
f 38/6/1 32/6/1 31/6/1
f 39/6/1 32/6/1 38/6/1
f 40/6/1 36/6/1 35/6/1
f 41/6/1 36/6/1 40/6/1
f 42/6/1 38/6/1 37/6/1
f 43/6/1 38/6/1 42/6/1
f 46/13/1 45/13/1 44/13/1
f 47/13/1 45/13/1 46/13/1
f 48/9/1 47/9/1 46/9/1
f 49/9/1 47/9/1 48/9/1
f 52/5/1 51/5/1 50/5/1
f 53/5/1 51/5/1 52/5/1
f 58/6/1 55/6/1 54/6/1
f 59/6/1 55/6/1 58/6/1
f 62/6/1 57/6/1 56/6/1
f 63/6/1 57/6/1 62/6/1
f 64/6/1 61/6/1 60/6/1
f 65/6/1 61/6/1 64/6/1
f 68/2/1 67/2/1 66/2/1
f 69/2/1 67/2/1 68/2/1
f 72/13/1 71/13/1 70/13/1
f 73/13/1 71/13/1 72/13/1
f 74/9/1 73/9/1 72/9/1
f 75/9/1 73/9/1 74/9/1
f 76/13/2 77/13/2 78/13/2
f 78/13/2 77/13/2 79/13/2
f 78/9/2 79/9/2 80/9/2
f 80/9/2 79/9/2 81/9/2
f 82/2/2 83/2/2 84/2/2
f 84/2/2 83/2/2 85/2/2
f 86/13/2 87/13/2 88/13/2
f 88/13/2 87/13/2 89/13/2
f 88/9/2 89/9/2 90/9/2
f 90/9/2 89/9/2 91/9/2
f 92/5/2 93/5/2 94/5/2
f 94/5/2 93/5/2 95/5/2
f 96/6/2 97/6/2 100/6/2
f 100/6/2 97/6/2 101/6/2
f 98/6/2 99/6/2 104/6/2
f 104/6/2 99/6/2 105/6/2
f 102/6/2 103/6/2 106/6/2
f 106/6/2 103/6/2 107/6/2
f 108/9/2 109/9/2 110/9/2
f 110/9/2 109/9/2 111/9/2
f 111/9/2 109/9/2 112/9/2
f 112/9/2 109/9/2 113/9/2
f 110/5/2 111/5/2 114/5/2
f 112/5/2 113/5/2 115/5/2
f 110/5/2 114/5/2 116/5/2
f 116/5/2 114/5/2 117/5/2
f 115/5/2 113/5/2 118/5/2
f 118/5/2 113/5/2 119/5/2
f 116/1/2 117/1/2 120/1/2
f 117/1/2 118/1/2 120/1/2
f 118/1/2 119/1/2 120/1/2
f 120/1/2 119/1/2 121/1/2
f 121/1/2 119/1/2 122/1/2
f 116/1/2 120/1/2 124/1/2
f 124/1/2 120/1/2 125/1/2
f 116/1/2 124/1/2 126/1/2
f 126/1/2 124/1/2 127/1/2
f 122/6/2 123/6/2 129/6/2
f 129/6/2 123/6/2 130/6/2
f 126/6/2 127/6/2 131/6/2
f 131/6/2 127/6/2 132/6/2
f 128/6/2 129/6/2 133/6/2
f 133/6/2 129/6/2 134/6/2
f 135/2/2 136/2/2 137/2/2
f 137/2/2 136/2/2 138/2/2
f 137/5/2 138/5/2 139/5/2
f 139/5/2 138/5/2 140/5/2
f 141/2/2 142/2/2 145/2/2
f 142/6/2 143/6/2 146/6/2
f 145/2/2 142/2/2 146/2/2
f 144/6/2 145/6/2 147/6/2
f 146/6/2 143/6/2 147/6/2
f 145/6/2 146/6/2 147/6/2
f 147/6/2 143/6/2 148/6/2
f 144/6/2 147/6/2 149/6/2
f 149/6/2 147/6/2 150/6/2
f 155/2/3 154/2/3 153/2/3
f 156/2/3 154/2/3 155/2/3
f 157/6/3 152/6/3 151/6/3
f 158/6/3 152/6/3 157/6/3
f 164/1/3 162/1/3 161/1/3
f 165/1/3 162/1/3 164/1/3
f 166/6/3 163/6/3 162/6/3
f 166/1/3 162/1/3 165/1/3
f 167/6/3 163/6/3 166/6/3
f 168/9/3 160/9/3 159/9/3
f 168/5/3 161/5/3 160/5/3
f 169/1/3 164/1/3 161/1/3
f 169/5/3 161/5/3 168/5/3
f 170/1/3 164/1/3 169/1/3
f 171/14/3 165/14/3 164/14/3
f 171/1/3 164/1/3 170/1/3
f 172/1/3 166/1/3 165/1/3
f 172/14/3 165/14/3 171/14/3
f 173/9/3 168/9/3 159/9/3
f 173/13/3 169/13/3 168/13/3
f 174/1/3 170/1/3 169/1/3
f 174/13/3 169/13/3 173/13/3
f 175/1/3 170/1/3 174/1/3
f 176/1/3 172/1/3 171/1/3
f 177/1/3 166/1/3 172/1/3
f 177/1/3 172/1/3 176/1/3
f 178/1/3 176/1/3 175/1/3
f 178/1/3 175/1/3 174/1/3
f 178/14/3 177/14/3 176/14/3
f 179/1/3 166/1/3 177/1/3
f 179/14/3 177/14/3 178/14/3
f 180/1/3 166/1/3 179/1/3
f 182/9/3 173/9/3 159/9/3
f 183/5/3 174/5/3 173/5/3
f 183/9/3 173/9/3 182/9/3
f 184/1/3 178/1/3 174/1/3
f 184/5/3 174/5/3 183/5/3
f 184/1/3 179/1/3 178/1/3
f 184/1/3 180/1/3 179/1/3
f 185/6/3 181/6/3 180/6/3
f 185/1/3 180/1/3 184/1/3
f 186/6/3 181/6/3 185/6/3
f 189/6/3 188/6/3 187/6/3
f 190/6/3 188/6/3 189/6/3
f 191/6/3 188/6/3 190/6/3
f 194/6/3 193/6/3 192/6/3
f 195/6/3 193/6/3 194/6/3
f 199/6/3 197/6/3 196/6/3
f 199/6/3 198/6/3 197/6/3
f 200/6/3 198/6/3 199/6/3
f 206/2/3 202/2/3 201/2/3
f 207/5/3 203/5/3 202/5/3
f 207/2/3 202/2/3 206/2/3
f 208/5/3 203/5/3 207/5/3
f 209/2/3 205/2/3 204/2/3
f 210/2/3 205/2/3 209/2/3
f 214/13/3 212/13/3 211/13/3
f 215/9/3 213/9/3 212/9/3
f 215/13/3 212/13/3 214/13/3
f 216/9/3 213/9/3 215/9/3
f 220/13/3 218/13/3 217/13/3
f 221/9/3 219/9/3 218/9/3
f 221/13/3 218/13/3 220/13/3
f 222/9/3 219/9/3 221/9/3
f 228/2/3 224/2/3 223/2/3
f 229/5/3 225/5/3 224/5/3
f 229/2/3 224/2/3 228/2/3
f 230/5/3 225/5/3 229/5/3
f 231/2/3 227/2/3 226/2/3
f 232/2/3 227/2/3 231/2/3
f 233/2/4 234/2/4 236/2/4
f 234/5/4 235/5/4 237/5/4
f 236/2/4 234/2/4 237/2/4
f 237/5/4 235/5/4 238/5/4
f 239/13/4 240/13/4 242/13/4
f 240/9/4 241/9/4 243/9/4
f 242/13/4 240/13/4 243/13/4
f 243/9/4 241/9/4 244/9/4
f 245/13/4 246/13/4 248/13/4
f 246/9/4 247/9/4 249/9/4
f 248/13/4 246/13/4 249/13/4
f 249/9/4 247/9/4 250/9/4
f 251/2/4 252/2/4 254/2/4
f 252/5/4 253/5/4 255/5/4
f 254/2/4 252/2/4 255/2/4
f 255/5/4 253/5/4 256/5/4
f 257/6/4 258/6/4 259/6/4
f 259/6/4 258/6/4 260/6/4
f 261/6/4 262/6/4 263/6/4
f 263/6/4 262/6/4 264/6/4
f 265/6/4 266/6/4 267/6/4
f 267/6/4 266/6/4 268/6/4
f 269/6/4 270/6/4 274/6/4
f 274/6/4 270/6/4 275/6/4
f 272/5/4 273/5/4 277/5/4
f 273/1/4 274/1/4 278/1/4
f 277/5/4 273/5/4 278/5/4
f 275/6/4 276/6/4 279/6/4
f 279/6/4 276/6/4 280/6/4
f 272/5/4 277/5/4 281/5/4
f 278/1/4 274/1/4 282/1/4
f 271/9/4 272/9/4 285/9/4
f 272/5/4 281/5/4 286/5/4
f 285/9/4 272/9/4 286/9/4
f 281/5/4 282/5/4 286/5/4
f 282/1/4 274/1/4 287/1/4
f 286/5/4 282/5/4 287/5/4
f 287/1/4 274/1/4 288/1/4
f 283/6/4 284/6/4 289/6/4
f 289/6/4 284/6/4 290/6/4
f 288/6/4 289/6/4 291/6/4
f 291/6/4 289/6/4 292/6/4
f 293/6/4 294/6/4 297/6/4
f 295/5/4 296/5/4 299/5/4
f 299/5/4 296/5/4 300/5/4
f 297/6/4 298/6/4 301/6/4
f 293/6/4 297/6/4 301/6/4
f 301/6/4 298/6/4 302/6/4
f 293/6/4 301/6/4 303/6/4
f 303/6/4 301/6/4 304/6/4
f 309/13/5 306/13/5 305/13/5
f 310/13/5 306/13/5 309/13/5
f 311/13/5 308/13/5 307/13/5
f 312/13/5 308/13/5 311/13/5
f 315/9/5 314/9/5 313/9/5
f 316/9/5 314/9/5 315/9/5
f 317/9/5 314/9/5 316/9/5
f 318/9/5 314/9/5 317/9/5
f 319/9/5 315/9/5 313/9/5
f 320/9/5 317/9/5 316/9/5
f 321/9/5 317/9/5 320/9/5
f 322/9/5 314/9/5 318/9/5
f 323/9/5 321/9/5 320/9/5
f 323/9/5 322/9/5 321/9/5
f 323/9/5 319/9/5 313/9/5
f 323/9/5 320/9/5 319/9/5
f 324/9/5 314/9/5 322/9/5
f 324/9/5 322/9/5 323/9/5
f 329/2/5 326/2/5 325/2/5
f 330/2/5 326/2/5 329/2/5
f 331/2/5 328/2/5 327/2/5
f 332/2/5 328/2/5 331/2/5
f 335/5/5 334/5/5 333/5/5
f 336/5/5 334/5/5 335/5/5
f 339/2/5 338/2/5 337/2/5
f 340/2/5 338/2/5 339/2/5
f 345/2/5 342/2/5 341/2/5
f 346/2/5 342/2/5 345/2/5
f 347/2/5 344/2/5 343/2/5
f 348/2/5 344/2/5 347/2/5
f 349/6/5 346/6/5 345/6/5
f 350/6/5 346/6/5 349/6/5
f 351/6/5 348/6/5 347/6/5
f 352/6/5 348/6/5 351/6/5
f 353/6/5 351/6/5 350/6/5
f 354/6/5 351/6/5 353/6/5
f 359/6/5 356/6/5 355/6/5
f 360/6/5 356/6/5 359/6/5
f 361/6/5 358/6/5 357/6/5
f 362/6/5 358/6/5 361/6/5
f 365/6/5 364/6/5 363/6/5
f 366/6/5 364/6/5 365/6/5
f 367/5/6 368/5/6 371/5/6
f 371/5/6 368/5/6 372/5/6
f 369/5/6 370/5/6 373/5/6
f 373/5/6 370/5/6 374/5/6
f 375/5/6 376/5/6 377/5/6
f 377/5/6 376/5/6 378/5/6
f 379/2/6 380/2/6 381/2/6
f 381/2/6 380/2/6 382/2/6
f 383/6/6 384/6/6 387/6/6
f 387/6/6 384/6/6 388/6/6
f 385/6/6 386/6/6 391/6/6
f 391/6/6 386/6/6 392/6/6
f 388/6/6 389/6/6 393/6/6
f 393/6/6 389/6/6 394/6/6
f 390/6/6 391/6/6 395/6/6
f 395/6/6 391/6/6 396/6/6
f 397/6/6 398/6/6 400/6/6
f 400/6/6 398/6/6 401/6/6
f 399/6/6 400/6/6 404/6/6
f 401/6/6 402/6/6 404/6/6
f 400/6/6 401/6/6 404/6/6
f 404/6/6 402/6/6 405/6/6
f 405/6/6 402/6/6 406/6/6
f 406/6/6 402/6/6 407/6/6
f 403/6/6 404/6/6 409/6/6
f 404/6/6 405/6/6 409/6/6
f 409/6/6 405/6/6 410/6/6
f 410/6/6 405/6/6 411/6/6
f 407/6/6 408/6/6 412/6/6
f 406/6/6 407/6/6 412/6/6
f 412/6/6 408/6/6 413/6/6
f 413/6/6 408/6/6 414/6/6
f 410/6/6 411/6/6 415/6/6
f 412/6/6 413/6/6 415/6/6
f 411/6/6 412/6/6 415/6/6
f 415/6/6 413/6/6 416/6/6
f 416/6/6 413/6/6 417/6/6
f 417/6/6 413/6/6 418/6/6
f 416/6/6 417/6/6 419/6/6
f 419/6/6 417/6/6 420/6/6
f 421/6/6 422/6/6 423/6/6
f 423/6/6 422/6/6 424/6/6
