# MagicaVoxel @ Ephtracy

# material
mtllib salesman.mtl
usemtl palette

# normals
vn -1 0 0
vn 1 0 0
vn 0 0 1
vn 0 0 -1
vn 0 -1 0
vn 0 1 0

# texcoords
vt 0.00195313 0.5
vt 0.00585938 0.5
vt 0.0332031 0.5
vt 0.0605469 0.5
vt 0.142578 0.5
vt 0.201172 0.5
vt 0.392578 0.5
vt 0.419922 0.5
vt 0.521484 0.5
vt 0.533203 0.5
vt 0.537109 0.5
vt 0.611328 0.5
vt 0.619141 0.5
vt 0.634766 0.5
vt 0.646484 0.5
vt 0.873047 0.5
vt 0.958984 0.5
vt 0.986328 0.5
vt 0.994141 0.5

# verts
v -4 3 4.5
v -4 3 2.5
v -4 4 3.5
v -4 4 2.5
v -4 4 -0.5
v -4 5 3.5
v -4 5 2.5
v -4 5 0.5
v -4 6 4.5
v -4 6 2.5
v -4 6 0.5
v -4 6 -0.5
v -4 8 -1.5
v -4 8 -2.5
v -4 9 0.5
v -4 9 -0.5
v -4 9 -1.5
v -4 10 1.5
v -4 10 0.5
v -4 10 -0.5
v -4 11 1.5
v -4 11 -2.5
v -3 2 2.5
v -3 2 -2.5
v -3 3 2.5
v -3 3 -2.5
v -3 4 2.5
v -3 4 -0.5
v -3 5 2.5
v -3 5 0.5
v -3 6 2.5
v -3 6 0.5
v -3 6 -0.5
v -3 7 2.5
v -3 7 -2.5
v -3 8 -1.5
v -3 8 -2.5
v -3 9 0.5
v -3 9 -0.5
v -3 9 -1.5
v -3 10 3.5
v -3 10 2.5
v -3 10 1.5
v -3 10 0.5
v -3 11 3.5
v -3 11 2.5
v -3 11 1.5
v -3 11 -2.5
v -3 12 2.5
v -3 12 -2.5
v -2 0 0.5
v -2 0 -0.5
v -2 1 0.5
v -2 1 -0.5
v -2 2 0.5
v -2 2 -0.5
v -2 3 3.5
v -2 3 2.5
v -2 3 -2.5
v -2 3 -3.5
v -2 5 3.5
v -2 5 2.5
v -2 5 -2.5
v -2 5 -3.5
v -2 7 3.5
v -2 7 2.5
v -2 8 3.5
v -2 8 2.5
v -2 12 1.5
v -2 12 -1.5
v -2 13 1.5
v -2 13 -1.5
v -1 5 -2.5
v -1 5 -3.5
v -1 6 -2.5
v -1 6 -3.5
v -1 8 3.5
v -1 8 2.5
v -1 9 3.5
v -1 9 2.5
v -1 9 -2.5
v -1 9 -3.5
v -1 11 -2.5
v -1 11 -3.5
v 1 0 0.5
v 1 0 -0.5
v 1 1 0.5
v 1 1 -0.5
v 1 2 0.5
v 1 2 -0.5
v 1 10 3.5
v 1 10 2.5
v 1 11 3.5
v 1 11 2.5
v 3 1 1.5
v 3 1 -1.5
v 3 2 1.5
v 3 2 -1.5
v -3 3 4.5
v -3 3 2.5
v -3 4 3.5
v -3 4 2.5
v -3 5 3.5
v -3 5 2.5
v -3 6 4.5
v -3 6 2.5
v -1 0 0.5
v -1 0 -0.5
v -1 1 0.5
v -1 1 -0.5
v -1 2 0.5
v -1 2 -0.5
v -1 10 3.5
v -1 10 2.5
v -1 11 3.5
v -1 11 2.5
v 1 5 -2.5
v 1 5 -3.5
v 1 6 -2.5
v 1 6 -3.5
v 1 8 3.5
v 1 8 2.5
v 1 9 3.5
v 1 9 2.5
v 1 9 -2.5
v 1 9 -3.5
v 1 11 -2.5
v 1 11 -3.5
v 2 0 0.5
v 2 0 -0.5
v 2 1 0.5
v 2 1 -0.5
v 2 2 0.5
v 2 2 -0.5
v 2 3 3.5
v 2 3 2.5
v 2 3 -2.5
v 2 3 -3.5
v 2 5 3.5
v 2 5 2.5
v 2 5 -2.5
v 2 5 -3.5
v 2 7 3.5
v 2 7 2.5
v 2 8 3.5
v 2 8 2.5
v 2 12 1.5
v 2 12 -1.5
v 2 13 1.5
v 2 13 -1.5
v 3 2 2.5
v 3 2 1.5
v 3 2 -1.5
v 3 2 -2.5
v 3 3 2.5
v 3 3 1.5
v 3 3 0.5
v 3 3 -0.5
v 3 3 -1.5
v 3 3 -2.5
v 3 4 0.5
v 3 4 -0.5
v 3 6 0.5
v 3 6 -0.5
v 3 7 2.5
v 3 7 -2.5
v 3 8 -1.5
v 3 8 -2.5
v 3 9 0.5
v 3 9 -0.5
v 3 9 -1.5
v 3 10 3.5
v 3 10 2.5
v 3 10 0.5
v 3 11 3.5
v 3 11 2.5
v 3 11 0.5
v 3 11 -2.5
v 3 12 2.5
v 3 12 -2.5
v 4 1 1.5
v 4 1 -1.5
v 4 3 1.5
v 4 3 0.5
v 4 3 -0.5
v 4 3 -1.5
v 4 4 0.5
v 4 4 -0.5
v 4 6 0.5
v 4 6 -0.5
v 4 8 -1.5
v 4 8 -2.5
v 4 9 0.5
v 4 9 -0.5
v 4 9 -1.5
v 4 10 0.5
v 4 10 -0.5
v 4 11 0.5
v 4 11 -2.5
v -4 3 4.5
v -4 6 4.5
v -3 3 4.5
v -3 6 4.5
v -3 10 3.5
v -3 11 3.5
v -2 3 3.5
v -2 5 3.5
v -2 7 3.5
v -2 8 3.5
v -1 3 3.5
v -1 5 3.5
v -1 8 3.5
v -1 9 3.5
v -1 10 3.5
v -1 11 3.5
v 1 3 3.5
v 1 5 3.5
v 1 8 3.5
v 1 9 3.5
v 1 10 3.5
v 1 11 3.5
v 2 3 3.5
v 2 5 3.5
v 2 7 3.5
v 2 8 3.5
v 3 10 3.5
v 3 11 3.5
v -3 2 2.5
v -3 3 2.5
v -3 4 2.5
v -3 5 2.5
v -3 6 2.5
v -3 7 2.5
v -3 10 2.5
v -3 11 2.5
v -3 12 2.5
v -2 3 2.5
v -2 5 2.5
v -2 7 2.5
v -2 8 2.5
v -2 9 2.5
v -2 10 2.5
v -1 3 2.5
v -1 5 2.5
v -1 6 2.5
v -1 7 2.5
v -1 8 2.5
v -1 9 2.5
v -1 10 2.5
v -1 11 2.5
v 0 6 2.5
v 0 7 2.5
v 1 3 2.5
v 1 5 2.5
v 1 6 2.5
v 1 7 2.5
v 1 8 2.5
v 1 9 2.5
v 1 10 2.5
v 1 11 2.5
v 2 3 2.5
v 2 5 2.5
v 2 7 2.5
v 2 8 2.5
v 2 9 2.5
v 2 10 2.5
v 3 2 2.5
v 3 3 2.5
v 3 7 2.5
v 3 10 2.5
v 3 11 2.5
v 3 12 2.5
v -4 10 1.5
v -4 11 1.5
v -3 10 1.5
v -3 11 1.5
v -2 12 1.5
v -2 13 1.5
v 2 12 1.5
v 2 13 1.5
v 3 1 1.5
v 3 2 1.5
v 3 3 1.5
v 4 1 1.5
v 4 3 1.5
v -4 5 0.5
v -4 6 0.5
v -4 9 0.5
v -4 10 0.5
v -3 5 0.5
v -3 6 0.5
v -3 9 0.5
v -3 10 0.5
v -2 0 0.5
v -2 1 0.5
v -2 2 0.5
v -1 0 0.5
v -1 1 0.5
v -1 2 0.5
v 1 0 0.5
v 1 1 0.5
v 1 2 0.5
v 2 0 0.5
v 2 1 0.5
v 2 2 0.5
v 3 3 0.5
v 3 4 0.5
v 3 6 0.5
v 3 9 0.5
v 3 10 0.5
v 3 11 0.5
v 4 3 0.5
v 4 4 0.5
v 4 6 0.5
v 4 9 0.5
v 4 10 0.5
v 4 11 0.5
v -4 8 -1.5
v -4 9 -1.5
v -3 8 -1.5
v -3 9 -1.5
v 3 8 -1.5
v 3 9 -1.5
v 4 8 -1.5
v 4 9 -1.5
v -4 3 2.5
v -4 4 2.5
v -4 5 2.5
v -4 6 2.5
v -3 3 2.5
v -3 4 2.5
v -3 5 2.5
v -3 6 2.5
v -4 4 -0.5
v -4 6 -0.5
v -3 4 -0.5
v -3 6 -0.5
v -2 0 -0.5
v -2 1 -0.5
v -2 2 -0.5
v -1 0 -0.5
v -1 1 -0.5
v -1 2 -0.5
v 1 0 -0.5
v 1 1 -0.5
v 1 2 -0.5
v 2 0 -0.5
v 2 1 -0.5
v 2 2 -0.5
v 3 3 -0.5
v 3 4 -0.5
v 3 6 -0.5
v 4 3 -0.5
v 4 4 -0.5
v 4 6 -0.5
v -2 12 -1.5
v -2 13 -1.5
v 2 12 -1.5
v 2 13 -1.5
v 3 1 -1.5
v 3 2 -1.5
v 3 3 -1.5
v 4 1 -1.5
v 4 3 -1.5
v -4 8 -2.5
v -4 11 -2.5
v -3 2 -2.5
v -3 3 -2.5
v -3 7 -2.5
v -3 8 -2.5
v -3 11 -2.5
v -3 12 -2.5
v -2 3 -2.5
v -2 5 -2.5
v -1 5 -2.5
v -1 6 -2.5
v -1 9 -2.5
v -1 11 -2.5
v 1 5 -2.5
v 1 6 -2.5
v 1 9 -2.5
v 1 11 -2.5
v 2 3 -2.5
v 2 5 -2.5
v 3 2 -2.5
v 3 3 -2.5
v 3 7 -2.5
v 3 8 -2.5
v 3 11 -2.5
v 3 12 -2.5
v 4 8 -2.5
v 4 11 -2.5
v -2 3 -3.5
v -2 5 -3.5
v -1 5 -3.5
v -1 6 -3.5
v -1 9 -3.5
v -1 11 -3.5
v 1 5 -3.5
v 1 6 -3.5
v 1 9 -3.5
v 1 11 -3.5
v 2 3 -3.5
v 2 5 -3.5
v -2 0 0.5
v -1 0 0.5
v 1 0 0.5
v 2 0 0.5
v -2 0 -0.5
v -1 0 -0.5
v 1 0 -0.5
v 2 0 -0.5
v 3 1 1.5
v 4 1 1.5
v 3 1 -1.5
v 4 1 -1.5
v -3 2 2.5
v 3 2 2.5
v 3 2 1.5
v -2 2 0.5
v -1 2 0.5
v 1 2 0.5
v 2 2 0.5
v -2 2 -0.5
v -1 2 -0.5
v 1 2 -0.5
v 2 2 -0.5
v 3 2 -1.5
v -3 2 -2.5
v 3 2 -2.5
v -4 3 4.5
v -3 3 4.5
v -2 3 3.5
v -1 3 3.5
v 1 3 3.5
v 2 3 3.5
v -4 3 2.5
v -3 3 2.5
v -2 3 2.5
v -1 3 2.5
v 1 3 2.5
v 2 3 2.5
v -2 3 -2.5
v 2 3 -2.5
v -2 3 -3.5
v 2 3 -3.5
v -4 4 2.5
v -3 4 2.5
v -4 4 -0.5
v -3 4 -0.5
v -2 7 3.5
v 2 7 3.5
v -2 7 2.5
v -1 7 2.5
v 0 7 2.5
v 1 7 2.5
v 2 7 2.5
v -4 8 -1.5
v -3 8 -1.5
v 3 8 -1.5
v 4 8 -1.5
v -4 8 -2.5
v -3 8 -2.5
v 3 8 -2.5
v 4 8 -2.5
v -4 9 0.5
v -3 9 0.5
v 3 9 0.5
v 4 9 0.5
v -4 9 -0.5
v -3 9 -0.5
v 3 9 -0.5
v 4 9 -0.5
v -4 9 -1.5
v -3 9 -1.5
v 3 9 -1.5
v 4 9 -1.5
v -1 9 -2.5
v 1 9 -2.5
v -1 9 -3.5
v 1 9 -3.5
v -3 10 3.5
v -1 10 3.5
v 1 10 3.5
v 3 10 3.5
v -3 10 2.5
v -2 10 2.5
v -1 10 2.5
v 1 10 2.5
v 2 10 2.5
v 3 10 2.5
v -4 10 1.5
v -3 10 1.5
v -4 10 0.5
v -3 10 0.5
v 3 3 1.5
v 4 3 1.5
v 3 3 0.5
v 4 3 0.5
v 3 3 -0.5
v 4 3 -0.5
v 3 3 -1.5
v 4 3 -1.5
v -2 5 3.5
v -1 5 3.5
v 1 5 3.5
v 2 5 3.5
v -4 5 2.5
v -3 5 2.5
v -2 5 2.5
v -1 5 2.5
v 1 5 2.5
v 2 5 2.5
v -4 5 0.5
v -3 5 0.5
v -2 5 -2.5
v -1 5 -2.5
v 1 5 -2.5
v 2 5 -2.5
v -2 5 -3.5
v -1 5 -3.5
v 1 5 -3.5
v 2 5 -3.5
v -4 6 4.5
v -3 6 4.5
v -4 6 2.5
v -3 6 2.5
v -4 6 0.5
v -3 6 0.5
v 3 6 0.5
v 4 6 0.5
v -4 6 -0.5
v -3 6 -0.5
v 3 6 -0.5
v 4 6 -0.5
v -1 6 -2.5
v 1 6 -2.5
v -1 6 -3.5
v 1 6 -3.5
v -2 8 3.5
v -1 8 3.5
v 1 8 3.5
v 2 8 3.5
v -2 8 2.5
v -1 8 2.5
v 1 8 2.5
v 2 8 2.5
v -1 9 3.5
v 1 9 3.5
v -1 9 2.5
v 1 9 2.5
v -3 11 3.5
v -1 11 3.5
v 1 11 3.5
v 3 11 3.5
v -3 11 2.5
v -1 11 2.5
v 1 11 2.5
v 3 11 2.5
v -4 11 1.5
v -3 11 1.5
v 3 11 0.5
v 4 11 0.5
v -4 11 -2.5
v -3 11 -2.5
v -1 11 -2.5
v 1 11 -2.5
v 3 11 -2.5
v 4 11 -2.5
v -1 11 -3.5
v 1 11 -3.5
v -3 12 2.5
v 3 12 2.5
v -2 12 1.5
v 2 12 1.5
v -2 12 -1.5
v 2 12 -1.5
v -3 12 -2.5
v 3 12 -2.5
v -2 13 1.5
v 2 13 1.5
v -2 13 -1.5
v 2 13 -1.5

# faces
f 3/17/1 2/17/1 1/17/1
f 4/17/1 2/17/1 3/17/1
f 6/17/1 3/17/1 1/17/1
f 6/4/1 4/4/1 3/4/1
f 7/10/1 5/10/1 4/10/1
f 7/4/1 4/4/1 6/4/1
f 8/10/1 5/10/1 7/10/1
f 9/17/1 6/17/1 1/17/1
f 9/17/1 7/17/1 6/17/1
f 10/17/1 7/17/1 9/17/1
f 11/10/1 5/10/1 8/10/1
f 12/10/1 5/10/1 11/10/1
f 17/18/1 14/18/1 13/18/1
f 19/4/1 16/4/1 15/4/1
f 20/18/1 17/18/1 16/18/1
f 20/4/1 16/4/1 19/4/1
f 21/18/1 19/18/1 18/18/1
f 21/18/1 20/18/1 19/18/1
f 22/18/1 17/18/1 20/18/1
f 22/18/1 20/18/1 21/18/1
f 22/18/1 14/18/1 17/18/1
f 25/6/1 24/6/1 23/6/1
f 26/6/1 24/6/1 25/6/1
f 27/10/1 26/10/1 25/10/1
f 28/10/1 26/10/1 27/10/1
f 31/10/1 30/10/1 29/10/1
f 32/10/1 30/10/1 31/10/1
f 33/10/1 26/10/1 28/10/1
f 34/10/1 32/10/1 31/10/1
f 34/10/1 33/10/1 32/10/1
f 35/10/1 26/10/1 33/10/1
f 35/10/1 33/10/1 34/10/1
f 36/3/1 35/3/1 34/3/1
f 37/3/1 35/3/1 36/3/1
f 38/3/1 36/3/1 34/3/1
f 39/3/1 36/3/1 38/3/1
f 40/3/1 36/3/1 39/3/1
f 42/3/1 38/3/1 34/3/1
f 43/3/1 38/3/1 42/3/1
f 44/3/1 38/3/1 43/3/1
f 45/18/1 42/18/1 41/18/1
f 46/3/1 43/3/1 42/3/1
f 46/18/1 42/18/1 45/18/1
f 47/3/1 43/3/1 46/3/1
f 49/3/1 47/3/1 46/3/1
f 49/3/1 48/3/1 47/3/1
f 50/3/1 48/3/1 49/3/1
f 53/16/1 52/16/1 51/16/1
f 54/16/1 52/16/1 53/16/1
f 55/6/1 54/6/1 53/6/1
f 56/6/1 54/6/1 55/6/1
f 61/10/1 58/10/1 57/10/1
f 62/10/1 58/10/1 61/10/1
f 63/10/1 60/10/1 59/10/1
f 64/10/1 60/10/1 63/10/1
f 67/3/1 66/3/1 65/3/1
f 68/3/1 66/3/1 67/3/1
f 71/3/1 70/3/1 69/3/1
f 72/3/1 70/3/1 71/3/1
f 75/10/1 74/10/1 73/10/1
f 76/10/1 74/10/1 75/10/1
f 79/4/1 78/4/1 77/4/1
f 80/4/1 78/4/1 79/4/1
f 83/18/1 82/18/1 81/18/1
f 84/18/1 82/18/1 83/18/1
f 87/16/1 86/16/1 85/16/1
f 88/16/1 86/16/1 87/16/1
f 89/6/1 88/6/1 87/6/1
f 90/6/1 88/6/1 89/6/1
f 93/18/1 92/18/1 91/18/1
f 94/18/1 92/18/1 93/18/1
f 97/11/1 96/11/1 95/11/1
f 98/11/1 96/11/1 97/11/1
f 99/17/2 100/17/2 101/17/2
f 101/17/2 100/17/2 102/17/2
f 99/17/2 101/17/2 103/17/2
f 101/4/2 102/4/2 103/4/2
f 103/4/2 102/4/2 104/4/2
f 99/17/2 103/17/2 105/17/2
f 103/17/2 104/17/2 105/17/2
f 105/17/2 104/17/2 106/17/2
f 107/16/2 108/16/2 109/16/2
f 109/16/2 108/16/2 110/16/2
f 109/6/2 110/6/2 111/6/2
f 111/6/2 110/6/2 112/6/2
f 113/18/2 114/18/2 115/18/2
f 115/18/2 114/18/2 116/18/2
f 117/10/2 118/10/2 119/10/2
f 119/10/2 118/10/2 120/10/2
f 121/4/2 122/4/2 123/4/2
f 123/4/2 122/4/2 124/4/2
f 125/18/2 126/18/2 127/18/2
f 127/18/2 126/18/2 128/18/2
f 129/16/2 130/16/2 131/16/2
f 131/16/2 130/16/2 132/16/2
f 131/6/2 132/6/2 133/6/2
f 133/6/2 132/6/2 134/6/2
f 135/10/2 136/10/2 139/10/2
f 139/10/2 136/10/2 140/10/2
f 137/10/2 138/10/2 141/10/2
f 141/10/2 138/10/2 142/10/2
f 143/3/2 144/3/2 145/3/2
f 145/3/2 144/3/2 146/3/2
f 147/3/2 148/3/2 149/3/2
f 149/3/2 148/3/2 150/3/2
f 151/6/2 152/6/2 155/6/2
f 155/6/2 152/6/2 156/6/2
f 153/6/2 154/6/2 159/6/2
f 159/6/2 154/6/2 160/6/2
f 156/10/2 157/10/2 161/10/2
f 155/10/2 156/10/2 161/10/2
f 159/10/2 160/10/2 162/10/2
f 158/10/2 159/10/2 162/10/2
f 155/10/2 161/10/2 163/10/2
f 162/10/2 160/10/2 164/10/2
f 155/10/2 163/10/2 165/10/2
f 163/10/2 164/10/2 165/10/2
f 164/10/2 160/10/2 166/10/2
f 165/10/2 164/10/2 166/10/2
f 165/3/2 166/3/2 167/3/2
f 167/3/2 166/3/2 168/3/2
f 165/3/2 167/3/2 169/3/2
f 169/3/2 167/3/2 170/3/2
f 170/3/2 167/3/2 171/3/2
f 165/3/2 169/3/2 173/3/2
f 173/3/2 169/3/2 174/3/2
f 172/18/2 173/18/2 175/18/2
f 173/3/2 174/3/2 176/3/2
f 175/18/2 173/18/2 176/18/2
f 176/3/2 174/3/2 177/3/2
f 176/3/2 177/3/2 179/3/2
f 177/3/2 178/3/2 179/3/2
f 179/3/2 178/3/2 180/3/2
f 181/11/2 182/11/2 183/11/2
f 183/11/2 182/11/2 184/11/2
f 184/11/2 182/11/2 185/11/2
f 185/11/2 182/11/2 186/11/2
f 184/4/2 185/4/2 187/4/2
f 187/4/2 185/4/2 188/4/2
f 187/10/2 188/10/2 189/10/2
f 189/10/2 188/10/2 190/10/2
f 191/18/2 192/18/2 195/18/2
f 193/4/2 194/4/2 196/4/2
f 194/18/2 195/18/2 197/18/2
f 196/4/2 194/4/2 197/4/2
f 196/18/2 197/18/2 198/18/2
f 195/18/2 192/18/2 199/18/2
f 198/18/2 197/18/2 199/18/2
f 197/18/2 195/18/2 199/18/2
f 202/17/3 201/17/3 200/17/3
f 203/17/3 201/17/3 202/17/3
f 210/10/3 207/10/3 206/10/3
f 211/10/3 207/10/3 210/10/3
f 212/3/3 209/3/3 208/3/3
f 214/18/3 205/18/3 204/18/3
f 215/18/3 205/18/3 214/18/3
f 216/2/3 211/2/3 210/2/3
f 217/2/3 211/2/3 216/2/3
f 218/4/3 213/4/3 212/4/3
f 218/3/3 212/3/3 208/3/3
f 219/4/3 213/4/3 218/4/3
f 222/10/3 217/10/3 216/10/3
f 223/10/3 217/10/3 222/10/3
f 224/3/3 218/3/3 208/3/3
f 225/3/3 218/3/3 224/3/3
f 226/18/3 221/18/3 220/18/3
f 227/18/3 221/18/3 226/18/3
f 237/6/3 229/6/3 228/6/3
f 237/10/3 230/10/3 229/10/3
f 237/10/3 231/10/3 230/10/3
f 237/10/3 233/10/3 232/10/3
f 237/10/3 232/10/3 231/10/3
f 238/10/3 233/10/3 237/10/3
f 239/3/3 234/3/3 233/3/3
f 239/10/3 233/10/3 238/10/3
f 240/3/3 234/3/3 239/3/3
f 241/3/3 234/3/3 240/3/3
f 242/3/3 234/3/3 241/3/3
f 243/6/3 237/6/3 228/6/3
f 244/2/3 239/2/3 238/2/3
f 245/2/3 239/2/3 244/2/3
f 246/2/3 239/2/3 245/2/3
f 247/3/3 241/3/3 240/3/3
f 248/19/3 242/19/3 241/19/3
f 248/3/3 241/3/3 247/3/3
f 249/19/3 242/19/3 248/19/3
f 250/3/3 236/3/3 235/3/3
f 251/8/3 246/8/3 245/8/3
f 251/2/3 245/2/3 244/2/3
f 252/8/3 246/8/3 251/8/3
f 253/6/3 243/6/3 228/6/3
f 254/2/3 251/2/3 244/2/3
f 255/7/3 252/7/3 251/7/3
f 255/2/3 251/2/3 254/2/3
f 256/7/3 252/7/3 255/7/3
f 258/3/3 249/3/3 248/3/3
f 258/3/3 250/3/3 249/3/3
f 259/3/3 250/3/3 258/3/3
f 260/3/3 236/3/3 250/3/3
f 260/3/3 250/3/3 259/3/3
f 261/6/3 253/6/3 228/6/3
f 262/2/3 255/2/3 254/2/3
f 262/2/3 256/2/3 255/2/3
f 263/2/3 256/2/3 262/2/3
f 264/3/3 258/3/3 257/3/3
f 265/19/3 259/19/3 258/19/3
f 265/3/3 258/3/3 264/3/3
f 266/19/3 259/19/3 265/19/3
f 267/6/3 261/6/3 228/6/3
f 268/10/3 263/10/3 262/10/3
f 268/6/3 261/6/3 267/6/3
f 268/10/3 262/10/3 261/10/3
f 269/3/3 264/3/3 263/3/3
f 269/10/3 263/10/3 268/10/3
f 269/3/3 266/3/3 265/3/3
f 269/3/3 265/3/3 264/3/3
f 270/3/3 266/3/3 269/3/3
f 271/3/3 236/3/3 260/3/3
f 272/3/3 236/3/3 271/3/3
f 275/18/3 274/18/3 273/18/3
f 276/18/3 274/18/3 275/18/3
f 279/3/3 278/3/3 277/3/3
f 280/3/3 278/3/3 279/3/3
f 284/11/3 282/11/3 281/11/3
f 284/11/3 283/11/3 282/11/3
f 285/11/3 283/11/3 284/11/3
f 290/10/3 287/10/3 286/10/3
f 291/10/3 287/10/3 290/10/3
f 292/4/3 289/4/3 288/4/3
f 293/4/3 289/4/3 292/4/3
f 297/16/3 295/16/3 294/16/3
f 298/6/3 296/6/3 295/6/3
f 298/16/3 295/16/3 297/16/3
f 299/6/3 296/6/3 298/6/3
f 303/16/3 301/16/3 300/16/3
f 304/6/3 302/6/3 301/6/3
f 304/16/3 301/16/3 303/16/3
f 305/6/3 302/6/3 304/6/3
f 312/4/3 307/4/3 306/4/3
f 313/10/3 308/10/3 307/10/3
f 313/4/3 307/4/3 312/4/3
f 314/10/3 308/10/3 313/10/3
f 315/4/3 310/4/3 309/4/3
f 316/18/3 311/18/3 310/18/3
f 316/4/3 310/4/3 315/4/3
f 317/18/3 311/18/3 316/18/3
f 320/18/3 319/18/3 318/18/3
f 321/18/3 319/18/3 320/18/3
f 324/18/3 323/18/3 322/18/3
f 325/18/3 323/18/3 324/18/3
f 326/17/4 327/17/4 330/17/4
f 330/17/4 327/17/4 331/17/4
f 328/17/4 329/17/4 332/17/4
f 332/17/4 329/17/4 333/17/4
f 334/10/4 335/10/4 336/10/4
f 336/10/4 335/10/4 337/10/4
f 338/16/4 339/16/4 341/16/4
f 339/6/4 340/6/4 342/6/4
f 341/16/4 339/16/4 342/16/4
f 342/6/4 340/6/4 343/6/4
f 344/16/4 345/16/4 347/16/4
f 345/6/4 346/6/4 348/6/4
f 347/16/4 345/16/4 348/16/4
f 348/6/4 346/6/4 349/6/4
f 350/4/4 351/4/4 353/4/4
f 351/10/4 352/10/4 354/10/4
f 353/4/4 351/4/4 354/4/4
f 354/10/4 352/10/4 355/10/4
f 356/3/4 357/3/4 358/3/4
f 358/3/4 357/3/4 359/3/4
f 360/11/4 361/11/4 363/11/4
f 361/11/4 362/11/4 363/11/4
f 363/11/4 362/11/4 364/11/4
f 365/18/4 366/18/4 370/18/4
f 370/18/4 366/18/4 371/18/4
f 368/10/4 369/10/4 373/10/4
f 367/6/4 368/6/4 373/6/4
f 373/10/4 369/10/4 374/10/4
f 374/10/4 369/10/4 375/10/4
f 375/10/4 369/10/4 376/10/4
f 371/3/4 372/3/4 377/3/4
f 370/3/4 371/3/4 377/3/4
f 369/3/4 370/3/4 377/3/4
f 377/3/4 372/3/4 378/3/4
f 376/10/4 369/10/4 380/10/4
f 369/3/4 377/3/4 381/3/4
f 378/3/4 372/3/4 382/3/4
f 367/6/4 373/6/4 383/6/4
f 379/10/4 380/10/4 384/10/4
f 367/6/4 383/6/4 385/6/4
f 383/10/4 384/10/4 386/10/4
f 385/6/4 383/6/4 386/6/4
f 369/3/4 381/3/4 387/3/4
f 386/10/4 384/10/4 387/10/4
f 381/3/4 382/3/4 387/3/4
f 384/10/4 380/10/4 387/10/4
f 380/10/4 369/10/4 387/10/4
f 387/3/4 382/3/4 388/3/4
f 382/3/4 372/3/4 389/3/4
f 388/3/4 382/3/4 389/3/4
f 389/3/4 372/3/4 390/3/4
f 388/18/4 389/18/4 391/18/4
f 391/18/4 389/18/4 392/18/4
f 393/10/4 394/10/4 395/10/4
f 393/10/4 395/10/4 399/10/4
f 395/10/4 396/10/4 399/10/4
f 399/10/4 396/10/4 400/10/4
f 397/18/4 398/18/4 401/18/4
f 401/18/4 398/18/4 402/18/4
f 393/10/4 399/10/4 403/10/4
f 403/10/4 399/10/4 404/10/4
f 409/16/5 406/16/5 405/16/5
f 410/16/5 406/16/5 409/16/5
f 411/16/5 408/16/5 407/16/5
f 412/16/5 408/16/5 411/16/5
f 415/11/5 414/11/5 413/11/5
f 416/11/5 414/11/5 415/11/5
f 419/6/5 418/6/5 417/6/5
f 420/6/5 419/6/5 417/6/5
f 421/6/5 419/6/5 420/6/5
f 422/6/5 419/6/5 421/6/5
f 423/6/5 419/6/5 422/6/5
f 424/6/5 420/6/5 417/6/5
f 425/6/5 422/6/5 421/6/5
f 426/6/5 422/6/5 425/6/5
f 427/6/5 419/6/5 423/6/5
f 428/6/5 426/6/5 425/6/5
f 428/6/5 427/6/5 426/6/5
f 428/6/5 419/6/5 427/6/5
f 428/6/5 425/6/5 424/6/5
f 429/6/5 424/6/5 417/6/5
f 429/6/5 428/6/5 424/6/5
f 430/6/5 428/6/5 429/6/5
f 437/17/5 432/17/5 431/17/5
f 438/17/5 432/17/5 437/17/5
f 439/10/5 434/10/5 433/10/5
f 440/2/5 435/2/5 434/2/5
f 440/10/5 434/10/5 439/10/5
f 441/10/5 436/10/5 435/10/5
f 441/2/5 435/2/5 440/2/5
f 442/10/5 436/10/5 441/10/5
f 445/10/5 444/10/5 443/10/5
f 446/10/5 444/10/5 445/10/5
f 449/10/5 448/10/5 447/10/5
f 450/10/5 448/10/5 449/10/5
f 453/3/5 452/3/5 451/3/5
f 454/3/5 452/3/5 453/3/5
f 455/3/5 452/3/5 454/3/5
f 456/3/5 452/3/5 455/3/5
f 457/3/5 452/3/5 456/3/5
f 462/18/5 459/18/5 458/18/5
f 463/18/5 459/18/5 462/18/5
f 464/18/5 461/18/5 460/18/5
f 465/18/5 461/18/5 464/18/5
f 470/4/5 467/4/5 466/4/5
f 471/4/5 467/4/5 470/4/5
f 472/4/5 469/4/5 468/4/5
f 473/4/5 469/4/5 472/4/5
f 474/18/5 471/18/5 470/18/5
f 475/18/5 471/18/5 474/18/5
f 476/18/5 473/18/5 472/18/5
f 477/18/5 473/18/5 476/18/5
f 480/18/5 479/18/5 478/18/5
f 481/18/5 479/18/5 480/18/5
f 486/18/5 483/18/5 482/18/5
f 487/18/5 483/18/5 486/18/5
f 488/18/5 483/18/5 487/18/5
f 489/18/5 485/18/5 484/18/5
f 490/18/5 485/18/5 489/18/5
f 491/18/5 485/18/5 490/18/5
f 494/18/5 493/18/5 492/18/5
f 495/18/5 493/18/5 494/18/5
f 496/11/6 497/11/6 498/11/6
f 498/11/6 497/11/6 499/11/6
f 500/11/6 501/11/6 502/11/6
f 502/11/6 501/11/6 503/11/6
f 504/10/6 505/10/6 510/10/6
f 505/2/6 506/2/6 511/2/6
f 510/10/6 505/10/6 511/10/6
f 506/10/6 507/10/6 512/10/6
f 511/2/6 506/2/6 512/2/6
f 512/10/6 507/10/6 513/10/6
f 508/10/6 509/10/6 514/10/6
f 514/10/6 509/10/6 515/10/6
f 516/10/6 517/10/6 520/10/6
f 520/10/6 517/10/6 521/10/6
f 518/10/6 519/10/6 522/10/6
f 522/10/6 519/10/6 523/10/6
f 524/17/6 525/17/6 526/17/6
f 526/17/6 525/17/6 527/17/6
f 528/10/6 529/10/6 532/10/6
f 532/10/6 529/10/6 533/10/6
f 530/10/6 531/10/6 534/10/6
f 534/10/6 531/10/6 535/10/6
f 536/10/6 537/10/6 538/10/6
f 538/10/6 537/10/6 539/10/6
f 540/3/6 541/3/6 544/3/6
f 544/3/6 541/3/6 545/3/6
f 542/3/6 543/3/6 546/3/6
f 546/3/6 543/3/6 547/3/6
f 548/4/6 549/4/6 550/4/6
f 550/4/6 549/4/6 551/4/6
f 552/18/6 553/18/6 556/18/6
f 556/18/6 553/18/6 557/18/6
f 554/18/6 555/18/6 558/18/6
f 558/18/6 555/18/6 559/18/6
f 560/18/6 561/18/6 564/18/6
f 564/18/6 561/18/6 565/18/6
f 562/18/6 563/18/6 568/18/6
f 568/18/6 563/18/6 569/18/6
f 566/18/6 567/18/6 570/18/6
f 570/18/6 567/18/6 571/18/6
f 572/3/6 573/3/6 574/3/6
f 574/3/6 573/3/6 575/3/6
f 572/3/6 574/3/6 576/3/6
f 575/3/6 573/3/6 577/3/6
f 572/3/6 576/3/6 578/3/6
f 576/3/6 577/3/6 578/3/6
f 577/3/6 573/3/6 579/3/6
f 578/3/6 577/3/6 579/3/6
f 580/3/6 581/3/6 582/3/6
f 582/3/6 581/3/6 583/3/6
